<mxfile host="app.diagrams.net" modified="2024-07-18T18:59:29.870Z" agent="Mozilla/5.0 (Windows NT 10.0; Win64; x64) AppleWebKit/537.36 (KHTML, like Gecko) Chrome/126.0.0.0 Safari/537.36" etag="bH3yRxtD0OQp_9Hd7EKk" version="24.6.4" type="github">
  <diagram name="Halaman-1" id="k90XaOBT5yvncYpQbE9H">
    <mxGraphModel dx="3500" dy="1740" grid="0" gridSize="10" guides="1" tooltips="1" connect="1" arrows="1" fold="1" page="1" pageScale="1" pageWidth="4681" pageHeight="3300" math="0" shadow="0">
      <root>
        <mxCell id="0" />
        <mxCell id="1" parent="0" />
        <mxCell id="bKZXCF3hpcBLxEKtwcrL-2" value="&lt;font style=&quot;font-size: 30px;&quot;&gt;Sumber data dari kaggle&lt;/font&gt;" style="text;html=1;align=center;verticalAlign=middle;whiteSpace=wrap;rounded=0;" vertex="1" parent="1">
          <mxGeometry x="49" y="42" width="331" height="30" as="geometry" />
        </mxCell>
        <mxCell id="bKZXCF3hpcBLxEKtwcrL-3" value="&lt;span style=&quot;color: rgb(51, 51, 51); font-family: Roboto, sans-serif; font-size: 14px; background-color: rgb(255, 255, 255);&quot;&gt;Sumber Data dari Kaggle: source data : https://www.kaggle.com/datasets/thedevastator/predicting-credit-card-customer-attrition-with-m&lt;/span&gt;" style="text;html=1;align=left;verticalAlign=middle;whiteSpace=wrap;rounded=0;" vertex="1" parent="1">
          <mxGeometry x="49" y="87" width="676" height="44" as="geometry" />
        </mxCell>
        <mxCell id="bKZXCF3hpcBLxEKtwcrL-4" value="&lt;span style=&quot;color: rgb(51, 51, 51); font-family: Roboto, sans-serif; font-size: 14px; text-align: start; background-color: rgb(255, 255, 255);&quot;&gt;RUMUSAN MASALAH&lt;/span&gt;" style="text;html=1;align=center;verticalAlign=middle;whiteSpace=wrap;rounded=0;" vertex="1" parent="1">
          <mxGeometry x="46" y="137" width="147" height="30" as="geometry" />
        </mxCell>
        <mxCell id="bKZXCF3hpcBLxEKtwcrL-5" value="1. Mencari hubungan antara jumlah penghasilan dan jenis kartu yang dipilih?" style="text;html=1;align=center;verticalAlign=middle;whiteSpace=wrap;rounded=0;" vertex="1" parent="1">
          <mxGeometry x="46" y="164" width="422" height="30" as="geometry" />
        </mxCell>
        <mxCell id="bKZXCF3hpcBLxEKtwcrL-6" value="&lt;h1 style=&quot;margin-top: 0px;&quot;&gt;&lt;span style=&quot;font-weight: normal;&quot;&gt;&lt;font face=&quot;Verdana&quot;&gt;Hasil&lt;/font&gt;&lt;/span&gt;&lt;/h1&gt;&lt;p&gt;Dari heatmap diatas menunjukan bahwa penghasilan yang lebih tinggi secara signifikan memilih kategori kartu yang lebih tinggi dan dari data diatas isa di dapatkan bahwa jenis kartu yang sering banyak dari penghasilan yang di bawah 40ribu dollar menggunakannya.&lt;/p&gt;&lt;p&gt;Sedangkan kategori yang palit sedikit digunakan &lt;font style=&quot;font-size: 12px;&quot;&gt;adalah &lt;/font&gt;pada katergori Platinum di rentang pendapatan 40 s/d 60 ribu dollar&lt;/p&gt;&lt;p&gt;&lt;font face=&quot;Verdana&quot; style=&quot;font-size: 24px;&quot;&gt;Metode Penelitian&lt;/font&gt;&lt;/p&gt;&lt;p&gt;&lt;font style=&quot;font-size: 12px;&quot;&gt;Menggunakan Teknik Visualisasi HITMAP pada kategori penghasilan dengan jenis kartu&lt;/font&gt;&lt;/p&gt;" style="text;html=1;whiteSpace=wrap;overflow=hidden;rounded=0;" vertex="1" parent="1">
          <mxGeometry x="410" y="189" width="381" height="268" as="geometry" />
        </mxCell>
        <mxCell id="bKZXCF3hpcBLxEKtwcrL-7" value="2. Rumusan masalah: Berapa rata-rata umur yang menggunakan jenis credit card" style="text;html=1;align=center;verticalAlign=middle;whiteSpace=wrap;rounded=0;" vertex="1" parent="1">
          <mxGeometry x="49" y="453" width="441" height="30" as="geometry" />
        </mxCell>
        <mxCell id="bKZXCF3hpcBLxEKtwcrL-8" value="&lt;h1 style=&quot;margin-top: 0px;&quot;&gt;&lt;span style=&quot;font-weight: normal;&quot;&gt;&lt;font face=&quot;Verdana&quot;&gt;Tujuan&lt;/font&gt;&lt;/span&gt;&lt;/h1&gt;&lt;p&gt;Melihat insight(rataan umur di masing-masing Card_category)&lt;/p&gt;&lt;p&gt;&lt;span style=&quot;font-size: 24px;&quot;&gt;&lt;font face=&quot;Verdana&quot;&gt;Metode penelitian&lt;/font&gt;&lt;/span&gt;&lt;/p&gt;&lt;p&gt;Visualisasi menggunakan Bar plot plot rata-rata umur di masing-masing Category jenis credit card.&lt;/p&gt;" style="text;html=1;whiteSpace=wrap;overflow=hidden;rounded=0;" vertex="1" parent="1">
          <mxGeometry x="49" y="478" width="381" height="157" as="geometry" />
        </mxCell>
        <mxCell id="bKZXCF3hpcBLxEKtwcrL-9" value="Plot rata-rata umur dimasing-masing card category&lt;div&gt;&lt;br&gt;&lt;div&gt;Hasil: Rata-rata umur pengguna card category baik Blue, Gold, Platinum dan Silver adalah umur nya rata-rata 45 ke atas&lt;/div&gt;&lt;/div&gt;" style="text;html=1;align=left;verticalAlign=middle;whiteSpace=wrap;rounded=0;" vertex="1" parent="1">
          <mxGeometry x="49" y="645" width="335" height="65" as="geometry" />
        </mxCell>
        <mxCell id="bKZXCF3hpcBLxEKtwcrL-10" value="3. Mencari persebaran cotumer berdasarkan gender" style="text;html=1;align=center;verticalAlign=middle;whiteSpace=wrap;rounded=0;" vertex="1" parent="1">
          <mxGeometry x="53" y="721" width="280" height="30" as="geometry" />
        </mxCell>
        <mxCell id="bKZXCF3hpcBLxEKtwcrL-11" value="&lt;h1 style=&quot;margin-top: 0px;&quot;&gt;&lt;span style=&quot;font-weight: normal;&quot;&gt;&lt;font face=&quot;Verdana&quot;&gt;Hasil&lt;/font&gt;&lt;/span&gt;&lt;/h1&gt;&lt;p&gt;Dari diagram diatas menunjukan bahwa saat ini jumlah costumer lebih banyak berjenis kelamin perempuan dengan total data 4428, dan laki-laki 4072&lt;/p&gt;" style="text;html=1;whiteSpace=wrap;overflow=hidden;rounded=0;" vertex="1" parent="1">
          <mxGeometry x="53" y="746" width="381" height="101" as="geometry" />
        </mxCell>
        <mxCell id="bKZXCF3hpcBLxEKtwcrL-13" value="4. Mencari jumlah costumer pada tiap kategori kartu" style="text;html=1;align=center;verticalAlign=middle;whiteSpace=wrap;rounded=0;" vertex="1" parent="1">
          <mxGeometry x="53" y="854" width="280" height="30" as="geometry" />
        </mxCell>
        <mxCell id="bKZXCF3hpcBLxEKtwcrL-14" value="&lt;h1 style=&quot;margin-top: 0px;&quot;&gt;&lt;span style=&quot;font-weight: normal;&quot;&gt;&lt;font face=&quot;Verdana&quot;&gt;Hasil&lt;/font&gt;&lt;/span&gt;&lt;/h1&gt;&lt;p&gt;Dari diagram di atas menunjukan bahwa saat ini jumlah exiting costumer paling banyak memilih jenis kartu blue dan paling sedikit memilih jenis kartu platinum, Begitupun juga dengan jumlah attire costumer&lt;/p&gt;" style="text;html=1;whiteSpace=wrap;overflow=hidden;rounded=0;" vertex="1" parent="1">
          <mxGeometry x="53" y="879" width="381" height="112" as="geometry" />
        </mxCell>
        <mxCell id="bKZXCF3hpcBLxEKtwcrL-15" value="" style="shape=image;verticalLabelPosition=bottom;labelBackgroundColor=default;verticalAlign=top;aspect=fixed;imageAspect=0;image=data:image/png,iVBORw0KGgoAAAANSUhEUgAAAxUAAAIjCAIAAAD6K6FZAAAACXBIWXMAABJ0AAASdAHeZh94AAAgAElEQVR4nOzdd1wTSRsH8EkCCTX0KlL1pAqKBVSKDVQsKJ5nB7ELeuqdhfPsvetZz4aevWFBPBW7qNg5FUUFQWx06RAgyfvH+u7lKAEkCWB+349/7M62ZzdreDIzO8sQCoUEAAAAAGqMWd8BAAAAADQyyJ8AAAAAagf5EwAAAEDtIH8CAAAAqB3kTwAAAAC1g/wJAAAAoHaQPwEAAADUDvInAAAAgNpB/gQAAABQO8ifoEYWLFjAYDDqvh8Gg7FgwYK67+e79H1fnICAAHNz8/qOooFKSkpiMBh79+6t70DKCwgIUFNTk/huy52vpL5eAGQJ+VNjtXfvXgaD8fDhQ7okJyenXbt2SkpKFy5cqMfA6sv58+dln3xI6a9LrUjjTti6dWsD/FteFeqP8Zo1a+gSoVA4fvz4Guajd+7cWbBgQXZ2thRDrJvr168z/k9RUdHS0nLkyJFv376t77gA5JpCfQcAkpGbm+vl5fX06dNTp0716NGjvsOpUlFRkYKCVO668+fPb9mypVHX30jk4kjkTti6dauurm5AQEAdg6kXQqFw0qRJO3bsmDt3bg3zp4ULFwYEBGhqako/usqZmZkVFRUpKiqKWWfKlClt27YtLS19/Pjxjh07IiIinj17ZmxsLLMgJagm5wvQwKH+6XuQl5fn7e0dExNz8uTJnj171nbzgoICaURVKSUlJSnlT3UkEAiKi4vrN4a6X5w63gmEkMLCwroE0BBMnjx5+/btc+bMWbRoUX3HUr2ysrKSkhIGg6GkpMRiscSs6ebmNnz48FGjRm3atGnNmjVZWVn79u2TWZySVZPzBWjgkD81evn5+T169Hj8+PHJkyd9fHzo8idPnvTs2ZPL5aqpqXXt2jU6OppeRLX43LhxY9KkSfr6+iYmJlT533//7ebmpqqqqq6u7uPjExsbW9VBQ0NDu3Tpoq+vz+FwbG1tt23bJrr04cOH3t7eurq6ysrKFhYWgYGB9CIxTSolJSXz5s1zdnbW0NBQVVV1c3O7du0avZRuo9mxY4eVlRWHw2nbtu2DBw+opQEBAVu2bKH2T6HK16xZ06FDBx0dHWVlZWdn5xMnTogekcFgBAcHHzx40M7OjsPhUK1d4jeplphrSDX2ffz40dfXV01NTU9P79dff+Xz+ZVenLy8vKlTp5qbm3M4HH19/e7duz9+/Fj8oau6E86cOePj42NsbMzhcKysrBYvXix6UE9PT3t7+0ePHrm7u6uoqPz222/m5uaxsbE3btygrqSnpyeprIcKdRclJSVVFc/p06ft7e2VlJTs7e1PnTpVbmlNPhpqDxwOx87OroZtkT///POWLVtCQkKWLFlCFz59+jQgIMDS0lJJScnQ0DAwMDAzM5NatGDBghkzZhBCLCwsqPOlz+jAgQPOzs7Kysra2tqDBw9+//696IG2bNliaWmprKzcrl27W7dueXp6UheKkpaWNnr0aAMDAyUlJUdHR9FEh76TN2zYQN3JL168qG3/py5duhBCEhMTqdm63HWZmZkjRozgcrmampr+/v7//PNPxUjEbC7+c4yMjOzUqZOmpqaamlqLFi1+++030YtQ1fmK/3oxNzfv3bt3VFQU1UhtaWn5119/1fC6AUhQQ6wJgJorKCjo2bPngwcPTpw40bt3b7o8NjbWzc2Ny+XOnDlTUVHxzz//9PT0vHHjRvv27el1Jk2apKenN2/ePKr+af/+/f7+/t7e3itXriwsLNy2bVunTp2ePHlSaZ/fbdu22dnZ9e3bV0FBITw8fNKkSQKBICgoiBCSlpbm5eWlp6c3e/ZsTU3NpKSksLCwmpxLbm7url27hgwZMnbs2Ly8vN27d3t7e9+/f9/JyYle59ChQ3l5eVTXllWrVg0YMODt27eKiorjx4//9OlTZGTk/v37Rfe5cePGvn37Dhs2rKSk5MiRIz/++OO5c+dEc4urV68eO3YsODhYV1eXOtNqNxGj2mvI5/O9vb3bt2+/Zs2ay5cvr1271srKauLEiRV3NWHChBMnTgQHB9va2mZmZkZFRb18+bJ169ZVHbqqO4EQsnfvXjU1tenTp6upqV29enXevHm5ubmrV6+mV8jMzOzZs+fgwYOHDx9uYGDg6ek5efJkNTW1OXPmEEIMDAxqcu7lXLp0yc/Pz9bWdvny5ZmZmaNGjaLTdEq11zkqKiosLGzSpEnq6up//PGHn59fcnKyjo6OmINOmzbtjz/+mDVr1rJly0TLIyMj3759O2rUKENDw9jY2B07dsTGxkZHRzMYjAEDBrx+/frw4cPr16/X1dUlhOjp6RFCli5dOnfu3EGDBo0ZMyY9PX3Tpk3u7u5Pnjyh2vi2bdsWHBzs5uY2bdq0pKQkX19fLS0t+gSLioo8PT3j4+ODg4MtLCyOHz8eEBCQnZ39888/0yGFhoYWFxePGzeOw+Foa2sLBIJaXd6EhARCCHU16nLXCQSCPn363L9/f+LEidbW1mfOnPH39y93LPE3rZjPMTY2tnfv3i1btly0aBGHw4mPj799+3ZNzk7M1wslPj5+4MCBo0eP9vf337NnT0BAgLOzs52dXa2uIUBdCaFxCg0NJYSYmZkpKiqePn263FJfX182m52QkEDNfvr0SV1d3d3dXXTbTp06lZWVUSV5eXmamppjx46l95CSkqKhoUGXzJ8/X/RuKSwsFD2ct7e3paUlNU3VNDx48KDSsAkh8+fPr3RRWVkZj8ejZ798+WJgYBAYGEjNUj+1dXR0srKyqJIzZ84QQsLDw6lZ6uu13D5F4ywpKbG3t+/SpYtoMEwmMzY2tuablOPv76+qqkpNV3sNqb9MixYtoldo1aqVs7OzaDz0xdHQ0AgKCqrquKLE3wnCCh/W+PHjVVRUiouLqVkPDw9CyPbt20XXsbOz8/DwEC0pdwPQx01MTKw0KicnJyMjo+zsbGr20qVLVJCVRlXpR8Nms+Pj46nZf/75hxCyadOmSo9F3RtmZmaEkBkzZlRcodwVOHz4MCHk5s2b1CyVSoqeSFJSEovFWrp0KV3y7NkzBQUFqoTH4+no6FBdkailVD0KfcU2bNhACDlw4AB9dq6urmpqarm5uXS0XC43LS2t3CmEhoZWeoJUReyePXvS09M/ffoUERFhbm7OYDAePHhQx7vu5MmThJANGzZQs3w+n6rZoiOp9qYV8zmuX7+eEJKenl7xjMqdb82/XoRCIfVB0x9fWloah8P55ZdfKr10ANKD9rvGLTU1VUlJqWnTpqKFfD7/0qVLvr6+lpaWVImRkdHQoUOjoqJyc3Pp1caOHUv3P4iMjMzOzh4yZEjG/7FYrPbt24u2oIlSVlamJnJycjIyMjw8PN6+fZuTk0MIoX6gnzt3rrS0tFbnwmKx2Gw2IUQgEGRlZZWVlbVp06Zco9VPP/2kpaVFTbu5uRFCxD+FRMf55cuXnJwcNze3cjv08PCwtbWt1SZVqeE1nDBhAj3t5uZWVfyampr37t379OlTTQ5NqrgTyp1RXl5eRkaGm5tbYWFhXFwcvQKHwxk1alQND1QTnz9/jomJ8ff319DQoEq6d+9e2+vcrVs3Kysrarply5ZcLlf8Z52amkoI+eGHHyouoo9VXFyckZHh4uJCCBHzsYaFhQkEgkGDBtEfpaGhYfPmzamP8uHDh5mZmWPHjqU7qw0bNoy+LQkh58+fNzQ0HDJkCDWrqKg4ZcqU/Pz8Gzdu0Ov4+flRFV01FxgYqKenZ2xs7OPjU1BQsG/fvjZt2tTxrrtw4YKiouLYsWOpWSaTKVrNU+3mROznSH0VnDlzpra1a2K+Xii2trbUf39CiJ6eXosWLfA0Isge2u8atz///HP69Ok9evS4detWixYtqML09PTCwkJ6lmJjYyMQCN6/f0/XcltYWNBL37x5Q/7fqUIUl8ut9Li3b9+eP3/+3bt3Rbsb5+TkaGhoeHh4+Pn5LVy4cP369Z6enr6+vkOHDuVwODU5nX379q1duzYuLo7OvUSDJISYmprS09RfrC9fvojZ4blz55YsWRITE8Pj8aiScp14yu2/JptUpSbXUElJSfSvppaWVlXxr1q1yt/fv2nTps7Ozr169Ro5ciSdDVeq0juBEhsb+/vvv1+9elU0exb9a9SkSRMqc5WUd+/eEUKaN28uWtiiRQvRlKXa6yz6WROx14oya9as8+fPjx8/XlNTc+DAgaKLsrKyFi5ceOTIkbS0NLpQ9AqU8+bNG6FQWC5+Qgj1vBh1ds2aNaPLFRQURJu5371717x5cybz31+nNjY29IaUijdetebNm+fm5sZisXR1dW1sbKjsrY533bt374yMjFRUVOiloudV7eZE7Of4008/7dq1a8yYMbNnz+7ateuAAQMGDhwoelmqIubrhZqu7b0BIA3Inxo3W1vb8+fPd+3atXv37rdv3660+qEq9I88Qgj1A3H//v2Ghoai61T6OFhCQkLXrl2tra3XrVvXtGlTNpt9/vz59evXUzthMBgnTpyIjo4ODw+/ePFiYGDg2rVro6Ojqx0n6cCBAwEBAb6+vjNmzNDX12exWMuXL6f6edAqPrAjFAqr2uGtW7f69u3r7u6+detWIyMjRUXF0NDQQ4cOVXURarhJVWpyDWv+wNGgQYPc3NxOnTp16dKl1atXr1y5MiwsTMwjdVXdCdnZ2R4eHlwud9GiRVZWVkpKSo8fP541a5ZolUC5i1CpikmkaCfi2qrJda7VZ00IUVNT+/vvv93d3YcNG8blcr28vOhFgwYNunPnzowZM5ycnNTU1AQCQY8ePcRUiggEAgaD8ffff5eLQYJjfdXkmpfj4ODQrVu3coWSvesqJWZz8Z+jsrLyzZs3r127FhERceHChaNHj3bp0uXSpUvi4xH/9VJVSOLvDQBpQP7U6LVr1+706dM+Pj7du3e/deuWnp6enp6eiorKq1evRFeLi4tjMplVJVhUQ4m+vn7FL+iKwsPDeTze2bNn6V+BFZv5XFxcXFxcli5deujQoWHDhh05cmTMmDHid3vixAlLS8uwsDD6TzXVK6KGKv6BP3nypJKS0sWLF+naL6rLjhjfsAmtVtewJoyMjCZNmjRp0qS0tLTWrVsvXbpU/JAEFe8EQsj169czMzPDwsLc3d2p1eiHtsSoeDGp2r7s7Gx6kCTR2pRyqB4qVNUITfSGrMt1FkNHR+fSpUsdO3YcMGBAZGSkq6srIeTLly9XrlxZuHDhvHnzqNXKBVbxZK2srIRCoYWFRaWtgdTZxcfHd+7cmSopKytLSkpq2bIlvcLTp08FAgFd10K1llIbSlYd7zozM7Nr164VFhbSVVDx8fE137zaz5HJZHbt2rVr167r1q1btmzZnDlzrl27Jj7Umny9ADQE6P/0Pejatevhw4fj4+N79OiRm5vLYrG8vLzOnDlDP4mdmpp66NChTp06VdUe5+3tzeVyly1bVq7TUnp6esWVqR9/9A++nJwc0S/NL1++iP4WpJ6eo+v2xSi323v37t29e7farWiqqqqEENFRpFksFoPBoKtJkpKSTp8+XW0Mtd2EVqtrKB6fzxdtXdLX1zc2Nq7JNSx3J5AKV7WkpGTr1q3V7kdVVbXceNzU3+mbN29Ss1T/m6o2NzIycnJy2rdvH30WkZGRL168oFeoy3UWr0mTJpGRkaqqqj4+Ps+ePSMVrgAhhOrfTat45wwYMIDFYi1cuFB0K6FQSI160KZNGx0dnZ07d5aVlVGLDh48KNp+1KtXr5SUlKNHj1KzZWVlmzZtUlNTo7rqS1Yd7zpvb+/S0tKdO3dSswKBgBoHpIbEf45ZWVmiK9fwq0D81wtAw4H6p+9E//79d+7cGRgY2Ldv3wsXLixZsoQaeWXSpEkKCgp//vknj8dbtWpVVZtzudxt27aNGDGidevWgwcP1tPTS05OjoiI6Nix4+bNm8ut7OXlxWaz+/TpM378+Pz8/J07d+rr63/+/Jlaum/fvq1bt/bv39/KyiovL2/nzp1cLrdXr17VnkLv3r3DwsL69+/v4+OTmJi4fft2W1vb/Pz8Gl4BZ2dnQsiUKVO8vb1ZLNbgwYN9fHzWrVvXo0ePoUOHpqWlbdmypVmzZk+fPhWzk2/YhFarayheXl6eiYnJwIEDHR0d1dTULl++/ODBg7Vr19Zk23J3QocOHbS0tPz9/adMmcJgMPbv31+Tlg5nZ+dt27YtWbKkWbNm+vr6Xbp08fLyMjU1HT169IwZM1gs1p49e6gTrGoPy5cv9/Hx6dSpU2BgYFZW1qZNm+zs7OhPsy7XuVrNmze/ePGip6ent7d3VFSUpaWlu7v7qlWrSktLmzRpcunSpXI1cNSdM2fOnMGDBysqKvbp08fKymrJkiUhISHU2ATq6uqJiYmnTp0aN27cr7/+ymazFyxYMHny5C5dugwaNCgpKWnv3r1WVlZ0Pda4ceP+/PPPgICAR48emZubnzhx4vbt2xs2bFBXV5fICYqq413n6+vbrl27X375JT4+3tra+uzZs1TSU8M+f+I/x0WLFt28edPHx8fMzCwtLW3r1q0mJiadOnUSv0/xXy8ADUh9PPQHEkD9Jis3TAD1CrDevXtTL3nw9vZWU1NTUVHp3LnznTt3xG8rFAqvXbvm7e2toaGhpKRkZWUVEBDw8OFDalG5B4zPnj3bsmVLJSUlc3PzlStX7tmzh/z/CfDHjx8PGTLE1NSUGvixd+/e9E6EYscvEAgEy5YtMzMz43A4rVq1OnfunL+/P/3EO/U3b/Xq1aKbiO6trKxs8uTJenp61Fc/Vbh79+7mzZtzOBxra+vQ0NByZ0EIqThGgPhNyhk5ciSXy63hNRQd7KDSq0qfDo/HmzFjhqOjo7q6uqqqqqOj49atW6uKodo74fbt2y4uLsrKysbGxjNnzrx48SIh5Nq1a9SaHh4ednZ25faZkpLi4+ND/b2nH8t/9OhR+/bt2Wy2qanpunXrxI9fIBQKT548aWNjQw2BGBYWJvppCmv/0ZiZmfn7+1d6oErvjVu3blHDt378+PHDhw/9+/fX1NTU0ND48ccfqacaRe/DxYsXN2nShGpuo8/o5MmTnTp1UlVVVVVVtba2DgoKevXqFb3JH3/8Qd2r7dq1u337trOzc48ePeilqampo0aN0tXVZbPZDg4OogMTVBptTcYvOH78eKVLhXW769LT04cOHaqurq6hoREQEEAN0XTkyJEabi7mc7xy5Uq/fv2MjY3ZbLaxsfGQIUNev35d6fnW/OtFKBSamZn5+PiIhuTh4VFuuA0AGWAI0e0O4FsNGDDgwYMH5UamBnkjEAj09PQGDBhAN4Q1XqdPn+7fv39UVFTHjh3rOxaABg39nwC+kUAgePz4cblhjUAeUKOP0rN//fVXVlaW6PtbGpGioiJ6ms/nb9q0icvlihnpHgAo6P8EUGsFBQWHDx8+ffr0u3fvyr0qBORBdHT0tGnTfvzxRx0dncePH+/evdve3v7HH3+s77i+xeTJk4uKilxdXXk8XlhY2J07d5YtW/YNwysAyBu03wHUWlJSkpWVVdOmTYODg3/99df6DgdkLSkpacqUKffv38/KytLW1u7Vq9eKFSv09fXrO65vcejQobVr18bHxxcXFzdr1mzixInBwcH1HRRAI4D8CQAAAKB20P8JAAAAoHaQPwEAAADUDvInAAAAgNpp6M/fzd5ZXN8hNEqju6TWdwiNT0KeUX2H0PiosUurXwkqyHHEAAG1lnn5VfUrwX+NlPxLg6oXodii7jvxKW3oHzfqnwAAAABqp6HXPwEAAEAjwlCs0fsTGzvkTwAAACAxTAW5yJ/QfgcAAABQO6h/AgAAAIlhKMpF1YxcnCQAAACABKH+CQAAACQG/Z8AAAAAoBKofwIAAACJkZPxC1D/BAAAAFA7qH8CAAAAiZGT/k/InwAAAEBi0H4HAAAAAJVA/RMAAABIjJy036H+CQAAAKB2UP8EAAAAEsNgof4JAAAAACpA/RMAAABIDBP1TwAAAABQEeqfAAAAQGIYTLmof0L+BAAAABLDYMlF05ZcnCQAAACABKH+CQAAACQG/ccBAAAAoBKofwIAAACJkZP+46h/AgAAAKgd1D8BAACAxKD/EwAAAABUAvVPAAAAIDFy8v5g5E8AAAAgMQymXDRtycVJAgAAAEgQ6p8AAABAYjB+AQAAAABUAvVPAAAAIDEYvwAAAAAAKoH6JwAAAJAY9H8CAAAAgEqg/gkAAAAkRk7Gf0L+BAAAABKD9jsAAAAAqATqnwAAAEBiMH4BAAAAAFQC9U8AAAAgMej/BAAAAACVkGn9U3FxsZKSkiyPCAAAALIkJ+MXyOIkBQLB4sWLmzRpoqam9vbtW0LI3Llzd+/eLYNDAwAAAEicLPKnJUuW7N27d9WqVWw2myqxt7fftWuXDA4NAAAAssRgMur+r75PonqyyJ/++uuvHTt2DBs2jMViUSWOjo5xcXEyODQAAADIEvInifn48WOzZs1ESwQCQWlpqQwODQAAACBxssifbG1tb926JVpy4sSJVq1ayeDQAAAAIEuof5KYefPmBQcHr1y5UiAQhIWFjR07dunSpfPmzZPBoQEAAOD7s23btpYtW3K5XC6X6+rq+vfff1PlxcXFQUFBOjo6ampqfn5+qamp9CbJyck+Pj4qKir6+vozZswoKyujF12/fr1169YcDqdZs2Z79+6tSQCyGL+gX79+4eHhixYtUlVVnTdvXuvWrcPDw7t37y6DQ9cFV4X0bKf4Q1MmW4Fk5gqP3yj9mCEUXcG3k4KLjUL43dLbz/lUyazBHC31f7Pmv++X3viHL9OgZe75s6cnTx5PiH+TlZU15/f5rh060oveJyeHhu56/uwpn883NTULmTNPX18/NTVl9KiR5XYyO+T3Tm7uhJDevbxEy2fMCvHw6CyDs5C9+BcPr4bvfZ/4IvdL+uhfN7Rs25UQwi8rjTi66cWTW5lpH5VU1FrYu/QZOlVDW58Q8ib2weZFgeV2Mn3pYbNm9qmfEo/tXJzyMaG4MF9DS8+5Y68eAyeyFBTr4ayk7FXso4un/0pKeJnzJSNo9trW7b/eG2eObL8fdSkrI0VBQdHMymbAsCDLHxyoRe8SXp7Y/0fim1gmk+Xs2uWnUb8oKatQi0b3by2683HTl7d385bl6ciG6fghZuOHKJs1IYTkv3jzZsnW9Is3RVdoG75Tv4f7Q79JqWevUCVKTY0cNi/Q8Wxfll/4Yf/pV3PWCvl8QohWR2frZb+qtbBgqSgXvfuUvOtI4sZ9sj8j2Uh+/eDupd0p757n56QPnLilRatuVLlQKLx59o8nt47zinJNrFr3HLZA28BcdMOy0pLQ5T+mfYgbPfe0YVMbQkh2xoctv3UVXSdg9tEmlk6yOpV6IJvxC0xMTFasWNG8eXOhULhv375+/fo9efLEzs5u2rRpERERx48f19DQCA4OHjBgwO3btwkhfD7fx8fH0NDwzp07nz9/HjlypKKi4rJlywghiYmJPj4+EyZMOHjw4JUrV8aMGWNkZOTtXc0XgozGf3Jzc4uMjJTNsSRCmU0m9uUkfOKHXigpKCa6XEYR7z8r2JkzTfWZOQXCchteelh6P+5rzsSTgy5excXFlhaW3b28ly1ZJFr++fOnmTOmdffqMWz4SBUVleR379hsRUKIrq7e/gNH6NUuXDgfdvK4c5u2dMnUab86O7ehplXV1GRyEvWghFfUxOyH9p3771k79d/CkuL3iS+9/cYbm7Uoys8N27dy5+rJvy4/SgixaOG0+M9r9Jrnj25+/Tza1MqOEMJiKbR179PUwlZZVf3ju1dHdiwQCIV9hvws+5OStpLiYhPzHzp17bdl5a+i5QbGZsPGztIzaFJSwosMP7huYdDyrWfUNbS+ZKWvWTCxXUevYWNnFRUWHNmzZs+m+ZNmrqY3HDV5gUOrDtS0iqq6TE9GVoo/pMT9tqYg/h2DwTAZ4dsmbMuttv3zX8RTSy1+9ifC/36JMZltz/7JS8m44z6YY6jvGLpSWFr6au56Qgi/oPDd1gO5z17xC4q0Ozrbb11YVlD0ftcx2Z+UDJTwCg1MWjh29Du5LVi0/O7FnQ+u7u8zaoWmrsmNMxsPbxw9fuF5BUUOvcLVk6vUNfXTPpR/QGrotL16xl/7ASurako7/u8Aj8fj8f79u8vhcDgcjugKffr0oaeXLl26bdu26OhoExOT3bt3Hzp0qEuXLoSQ0NBQGxub6OhoFxeXS5cuvXjx4vLlywYGBk5OTosXL541a9aCBQvYbPb27dstLCzWrl1LCLGxsYmKilq/fn1DyZ8aHQ9HhewC4YmbXyv3vuT95yuGq0L6uiruvlAyyptdbkNeKckvklGQDUGbtu3atG1XsfyvfaFt2rQLHD2WmjUyMqYmWCyWlrY2vdrdO7c7ubkrKyvTJaqqqqIrfK9sW7nZtnIrV6isoh70+0561m/Ub+vmDMnK+Kyta6SgoMjV1KXK+WWlzx5ec+8xhMFgEEJ0DZrqGjSlFmnrGce/ePA27rFMTkLWHJw7Ojh3rFju4t6Tnv5p1PRbl0+/f/fatmX7pw9vKrAUho2bzWQyCSEjJvw2f+pPqZ+TDYxMqZVVVNU1tHRlE3x9SYv4N+1+NW+D6fghWu2dqPyJ62htMTXwtotftw+36XX0undSt2l2z3tUSVom+Sfu9YKN1st+fb1os7C0NDfmZW7MS2q1j+8+Gvp21+7U5nvNn5o5eDRz8ChXKBQK71/+q5PPxBZO3QghfUet2vBrh1dPLtu186FWiH924+2L234TNiU8v1luW2U1TTUNPRlE3hBI5P3By5cvX7hwIT07f/78BQsWVLomn88/fvx4QUGBq6vro0ePSktLu3X7Wl9obW1tamp69+5dFxeXu3fvOjg4GBgYUIu8vb0nTpwYGxvbqlWru3fv0ptQi6ZOnVrJkf5LFqmmT1EAACAASURBVPkTk8mkvujL4fMbbtuWjRnzzQfB0K6KlkbM3ALh3Rf8B6++Rssg5KfOijeflqV9KV/5RAjxdFTo0kohJ18Yk8CPesYXVLLK908gEDx8cH+A349zfw95mxBvYGD446DBok17lPg3r9++TZg46T8/77Zt27zpj/UGhkY9e/l07+5d6Z0jJ4oL8xgMhopK+XqRZ4+uF+Rlt/f0rbhJekryy5jbju26VlwkD8pKS29cClNWUWtq/gM1y1JQZP6/KUGRzSGEvHkZQ+dPB3es2LdlsZ5BEw9vv05d+33nNxuTaTSwB0tV5Uv0E0IIU1nJ6a+1sVMW8VIzRNfScnHKff66JC2Tmk2/FOWwZaG6XTM6c6JwnWw0XVu9nr9BZuE3BNkZHwpy081tvtZZKqmoN7Fw/Pj2CZU/5edmnN8/d+CkLYrsSl6zcXzzxLIynra+uav3mB+c5PR/aK2EhIRMnz6dni1X+UR59uyZq6trcXGxmpraqVOnbG1tY2Ji2Gy2pua/NXwGBgYpKSmEkJSUFDp5osqpwkoX5ebmFhUVif62r0gW+dOpU6fo6dLS0idPnuzbt080rxRVrsqurFQoWjUqM9rqjPY2rKhn/OsxJSZ6zL4dFPgC4eM3AkKIhyOLLyC3YytJ/m7Hln3KEBbyhGYGzB5tFdRVGBHRZRVX++7lZGcXFRWdOH50xMiAUaPGPHr0YNnSRctWrHZwaCm62qVLF5o2NbWxtaNLhg0f6ejYiqPEefL40bYtm4qLivr26y/z8BuE0hLe2UPrW3foqaRSvhEz+mqYtWMHTR1D0cL1c4d/SHxZVlrSoevAnoOCiZz558HNP9eFlPCKNbR0f1mwTZ2rRQixdmh7NHTdhVP7uvUeyuMVndy/iRCS8+VruuA7ZKK1Q1s2Ryk2JvrAjhW84qJuvYfU5zlIjbr9Dx1uHWEqcfj5hY8GBuW/TCCE2K4N+RL9JDX8SrmVOYa6JSIZFZVdcQz0CPmaP3VJvMHW02YqsF4v2vx+zwlZnUSDUJCbTghRVdehS1S5Ovm5GYQQoVAYHjq7tcdgY3OH7IwPoluxOSrdfpxtYtWawWTEPb50fFvQjxO3fN8plESenqvYYFdRixYtYmJicnJyTpw44e/vf+PGjboft+Zk1H9cdHbgwIF2dnZHjx4dPXp0xZXLVdl17D2nU9/fpR5iBQwG+ZghvPiwjBDyKZNvoMVob6Pw+E1JE11GR3uFP07xKt0q6tnXpColi8/nk/5uChful/EFsgu7gRAIhYQQF5cOvv39CCGWVlYvX774+/w50fyJx+PduH7tpyHDRDccMnQ4NWFl1ay4uDjs5HH5zJ/4ZaV7N/xKhGTQmLnlFmVnpsT9cydg2ppy5QE/r+EVF3x89+rMgbW64Xu79ivf2fz7Zu3Qdv66w/m52TcjT21fM2vOyr+4mtpNTK0Cpyw8Grru5IHNTCazq89grqYOg/G1OqrPoK+Ny2aW1iXFRRdO//W95k/5rxJvtfFV0FA3GuDtuGdldNfhKlZmup4ut9p+y3+uu52HKaipaLZ3tF76S2HCu09HIyQecGP08Or+kuKCDj3HV1ykoq7dvvsoatrYvGV+dlr0pd3fe/4ko/ffsdlsanRJZ2fnBw8ebNy48aeffiopKcnOzqaroFJTUw0NDQkhhoaG9+/fp7elnsujF4k+ppeamsrlcsVXPpH66v/k4uIybty4SheVq7JbdKB+GsDyCknal38Tn7Rsob0FgxBibshUVSazh3xNillMhk97hU72CiuPlM+oktMFLCZDS52RkSN3bXhcLpfFYjU1NaVLmjY1fRH7XHSd21G3eDxe167dKmz9VYsW1kcOHywtLVFULN/J7PvGLysN3fBrVvqn4Hm7K1Y+3bt+WlVd08HZs1y5lq4hIcTQxEog4B/dsahzH38mkyWbgBsCjpKygZGpgZGpVYuWIZP63bpy2scvkBDi4t7Txb1nTnYmh6PMYDAuhR/UM2hScXOLH+zDj+/8Xm82YWlpYUIyIST3caxmGwfzySMFRTwVK1OvjAf0Os7HNmVFPYzuNpKXkqHR9t/fORwDXUIILzWdLilK+kAIyXv+mqOv23zuZLnKn1S5eoSQgrxMdU19qqQgN9OgqTUhJCku+uPbmBWTHOiV9yz1s2/fp++oleV2Ymzh+PbFHVmFLEcEAgGPx3N2dlZUVLxy5Yqfnx8h5NWrV8nJya6uroQQV1fXpUuXpqWl6evrE0IiIyO5XK6trS216Pz58/SuIiMjqU3Eq4f8qaio6I8//mjSpJJvMVKhyk5BsVhWcf3Hu1SBrua/GbSeBiM7X0gIefKGH//x37wqsCf7yRv+w9eVtOUZazMEAmFBkdwlT4QQRUXF5j+0+Pjh30rsjx8/6OsbiK5z6dKFdu1dNDSqfA7l7dsENTX17/LvmRhU8pT+OXny/N2q6uUvjlAovHf9dFv3PmKGJxAKhHx+mVAgIPKUP4kSCoRlpSWiJRqaOoSQW5dPKyqy7ZxcKm7yPvGVihpXLm42JpPJYb9ZuCl5z3G6zCPm3Itfl6eeu0YI+RId0yxkAltPuyQ9ixCi261DaU4e/bxehV19h8NkiKGpa6LK1Ut6eZcamIBXlP8x8Z/WHkMIIV6Df/fw/drjOD877fDG0QPGrje2dKy4k9T3L7/7juSyGf0yJCSkZ8+epqameXl5hw4dun79+sWLFzU0NEaPHj19+nRtbW0ulzt58mRXV1cXFxdCiJeXl62t7YgRI1atWpWSkvL7778HBQVR+caECRM2b948c+bMwMDAq1evHjt2LCKi+h8GssiftLS06I6ZQqEwLy9PRUXlwIEDMjj0N4t6VjaxH9vTifXsrcBEj9HOmhV2q5QQUsgjhbx/UyKBgOQVCakaJlN9RlN95ttPAl4pMdVn9HZVfBIvKCqp8hDfh6Kios+fPlHTqakpbxMS1NTV9fX1B/gNXLVimZ2DQ8uWjo8ePbx/L3r5yn+bnD59+hj7/NmChUtEd3Xv3t3sL9ktrK3ZbHbMk8fHjh4e4PejTE9GhnjFhekpydR0ZtrHD0lxKmoaGpq6e9ZP/5D4ctzMLQKBIDc7gxCioqah8P9s6fXze5lpH127DBDd1cNb51gKCkZNf1BQVHz/Nvbc4Y2tXL2/y/GfiosK01LeU9MZqR+TE1+pqnHV1DXPndjl1NZDQ0s3Py/76vljX7LS2nT4OrzclfNHmrVw5CipvPgn+vi+jX4jJlPjFMQ8uJGbnWX5g4Mim/3in3sRJ/d49xtRbycmTS2WTE+/cLPo/WcFdVXjwb11PNrd7zWal5pRrtt4UfInqmIpPTIq72W8095VL0NWcwz0Wiyc+m7bQUFJKSHEbOLQouTP+a/eEkJ03NpaTg9M2ry/Xk5KBkqKC7LSv/4Pzc74kPL+pbKKhoaOcbtuI2+f36atb0aNX6CuqU8NDaWhY0xvy+aoEEI09U25WoaEkKd3TrEUFA2a2hBCXj2J/Of2SZ+RSyo5JNRSWlrayJEjP3/+rKGh0bJly4sXL1LjSq5fv57JZPr5+fF4PG9v761bt1Lrs1isc+fOTZw40dXVVVVV1d/ff9Gir8PuWFhYRERETJs2bePGjSYmJrt27ap28AIim/xp/fr1dP7EZDL19PTat2+vpaUlg0N/sw8Zwv2RpT3aKnRtpfAlTxh+tywmoZp+TGV84mjJ6tZaQYFFsvKEUc/Kbj1ruA8YSsqbN69/mz2Dmt61809CSNdu3adNn9GhQ6dJwVOOHzuyY/vWJiYmv82ZZ2dnT28Veemirq5uq9bOortSYClEnDu7a+d2oVBoZGw8Zux47x69ZHkuspScEEuPh3n6r9WEkHYefXsMnPT84XVCyKpZA+k1g+ftaW73dXys6GthFj84GTSxFN0Vk6Vw+cye9M/vhEKhtp6xm/cQT5/vMxVISnixeu7Xdv+joesIIR069xk54beUD0lbr53Lz81WVdewaGY3e+nuJqZW1GqJb2LPHP6TV1xoaGI+YuJvHTx7U+UslsLVv48d2bOWEKG+YdOfRk137z6g0oM2dhx9HcfQlRwj/bKcvLxnr+73Gp1xRWzjkUDwsN8E+80LOt46WlZQ9HH/qdcL/qCWMJhM6yXTlS1MhGX8wrfJcb+tSd5xRNyuGrPP754fWPt1pN/Lx5cTQlq69u8zaoWr99hSXtH5A/OKC3ObNnMe/POumjzhFBWxNSfzE5PJ0jG07D9uvY1zD+lGX99kU/+0e/fuSsuVlJS2bNmyZcuWiovMzMxE2+lEeXp6PnnypFYBMITCBt3ANHtn/bTfNXaju6RWvxL8V0KeUX2H0PioseVglFgpyHFsXf1K8F+Zl1/VdwiNz8jyg1jJwrtxlYyuUltmO07XfSdSJcX6p6dPn4pfoWXLluJXAAAAgMZFZs/f1S8p5k9OTk4MRpX1WwwGoyGPnwkAAABQFSnmT4mJidLbOQAAADRAsun/VO+kmD+ZmZlRE5mZmTo6OoSQ9+/f79y5s6ioqG/fvm5u5V/+BQAAAI2dnLTfSfcknz17Zm5urq+vb21tHRMT07Zt2/Xr1+/YsaNz586nTzf0rmEAAAAAlZJu/jRz5kwHB4ebN296enr27t3bx8cnJyfny5cv48ePX7FihVQPDQAAAPWAwZDAvwZPuuM/PXjw4OrVqy1btnR0dNyxY8ekSZOod6FPnjyZGg8UAAAAoNGRbv6UlZVFvZxPTU1NVVWVHjNTS0srLy9PqocGAAAA2ZOT/uNS7+TFEKmFYzSGGjkAAAAA8aT+/paAgADq/XzFxcUTJkxQVVUlhPB4PGkfFwAAAGRPTp6/k27+5O/vT08PHz5cdNHIkSOlemgAAAAAKZFu/hQaGirV/QMAAECDgv5PAAAAAFAJqfd/AgAAAPmB/k8AAAAAtYP2OwAAAACoBOqfAAAAQGJQ/wQAAAAAlUD9EwAAAEiOfPQfl4uTBAAAAJAg1D8BAACAxMjJu25R/wQAAABQO6h/AgAAAInB+JkAAAAAtYPxCwAAAACgEqh/AgAAAMmRj/Y7uThJAAAAAAlC/RMAAABIDPo/AQAAAEAlUP8EAAAAEsNgyEXVjFycJAAAAIAEof4JAAAAJEc++j8hfwIAAACJkZPxx+XiJAEAAAAkCPVPAAAAIDEYvwAAAAAAKoH6JwAAAJAcjF8AAAAAABWh/gkAAAAkBv2fAAAAAKASqH8CAAAAyZGP8Z+QPwEAAIDEMBhovwMAAACAClD/BAAAAJIjH+13cnGSAAAAABKE+icAAACQGIxfAAAAAACVQP0TAAAASA7e3wIAAAAAFaH+CQAAACRHPvo/IX8CAAAAiWGg/Q4AAAAAKmIIhcL6jkEct3636jsEkBdy8sytZAkFDfoLBL4nQoGgvkNofKLCPWR/0IKdv9d9J6pjl9R9J1KF+icAAACA2kH/JwAAAJAYBt7fAgAAANAALV++vG3bturq6vr6+r6+vq9evaIXeXp6MkRMmDCBXpScnOzj46OioqKvrz9jxoyysjJ60fXr11u3bs3hcJo1a7Z3795qA0D+BAAAAJLDYEjgX3Vu3LgRFBQUHR0dGRlZWlrq5eVVUFBALx07duzn/1u1ahVVyOfzfXx8SkpK7ty5s2/fvr17986bN49alJiY6OPj07lz55iYmKlTp44ZM+bixYviA0D7HQAAADQyFy5coKf37t2rr6//6NEjd3d3qkRFRcXQ0LDcJpcuXXrx4sXly5cNDAycnJwWL148a9asBQsWsNns7du3W1hYrF27lhBiY2MTFRW1fv16b29vMQGg/gkAAAAkh8ms+z8ej5crgsfjiTlgTk4OIURbW5suOXjwoK6urr29fUhISGFhIVV49+5dBwcHAwMDatbb2zs3Nzc2NpZa1K1bN3pzb2/vu3fvVnOW33RtAAAAACojifa75cuXa4hYvnx5VUcTCARTp07t2LGjvb09VTJ06NADBw5cu3YtJCRk//79w4cPp8pTUlLo5IkQQk2npKRUuig3N7eoqEjMWaL9DgAAABqWkJCQ6dOn07McDqeqNYOCgp4/fx4VFUWXjBs3jppwcHAwMjLq2rVrQkKClZWVZCNE/gQAAAASI5HxCzgcjpiciRYcHHzu3LmbN2+amJhUukL79u0JIfHx8VZWVoaGhvfv36cXpaamEkKoblKGhobULL2Iy+UqKyuLOTTa7wAAAKCREQqFwcHBp06dunr1qoWFRVWrxcTEEEKMjIwIIa6urs+ePUtLS6MWRUZGcrlcW1tbatGVK1forSIjI11dXcUHgPonAAAAkByZvD84KCjo0KFDZ86cUVdXp/owaWhoKCsrJyQkHDp0qFevXjo6Ok+fPp02bZq7u3vLli0JIV5eXra2tiNGjFi1alVKSsrvv/8eFBRE1XJNmDBh8+bNM2fODAwMvHr16rFjxyIiIsQHgPonAAAAaGS2bduWk5Pj6elp9H9Hjx4lhLDZ7MuXL3t5eVlbW//yyy9+fn7h4eHUJiwW69y5cywWy9XVdfjw4SNHjly0aBG1yMLCIiIiIjIy0tHRce3atbt27RI/eAHB+4MBaHh/8DfA+4NBZvD+4G9QL+8PLjpU5bNyNac8NKTuO5Eq1D8BAAAA1A76PwEAAIDEMGTS/6neIX8CAAAAyZGPvhBykSQCAAAASBDqnwAAAEBy5KP9Ti5OEgAAAECCUP8EAAAAksNA/ycAAAAAqAD1TwAAACA5knh/cMMnFycJAAAAIEGofwIAAADJkY/n75A/AQAAgORg/EwAAAAAqAj1TwAAACA58tF+JxcnCQAAACBBqH8CAAAAycH4mQAAAABQEeqfAAAAQHIwfiYAAAAAVIT6JwAAAJAc9H8CAAAAgIpQ/wQAAACSIx/jPyF/AgAAAMlB/3EAAAAAqAj1TwAAACA56D8OAAAAABWh/gkAAAAkRz76j8vFSQIAAABIEOqfAAAAQHLQ/wkAAAAAKkL9EwAAAEiOfIz/hPwJAAAAJEYoH+130sqfBgwYIH6FsLAwKR0aAAAAQKqklT9paGhQE0Kh8NSpUxoaGm3atCGEPHr0KDs7u9rsCgAAABol+Ri/QFr5U2hoKDUxa9asQYMGbd++ncViEUL4fP6kSZO4XK6UjgsAAAAgbVLv/7Rnz56oqCgqeSKEsFis6dOnd+jQYfXq1dI+NAAAAMiafNQ/Sf0ky8rK4uLiREvi4uIEAoG0jwsAAAAgJVKvfxo1atTo0aMTEhLatWtHCLl3796KFStGjRol7eMCAACA7OH5O8lYs2aNoaHh2rVrP3/+TAgxMjKaMWPGL7/8Iu3jAgAAAEiJ1PMnJpM5c+bMmTNn5ubmEkIaac9xR1vukP4mLZqp6Wpzflv24ta9TKpcWYk5fqSFW3sdDXWFz2m8E+c+nrmQUr+hNhxVXbTfpvzQs6sBvdq9x1m/LoytpxgbnGEDTNxddMxMlHklgudxedv/Snr/qYhaZGyoNMnfoqUNV1GRce/Jl407337JKa3faBuI4X4m7q66ZibKPJ7geVzutr+S3n/8etH6eBl2d9f7wUpNVUWh59A7+QX8+g21QRFz3Wir59m5OGuL/v8FUcrKrLHDzN1ddbU0FF+/zd+4MyHuTV59B9UAyEf/J9mNn9lIMyeKkhIrPqkg4krqshBb0fLgQMvWLTUXr3+Vklbc1klr+oRmGVklt+9n1VecDUpVF40QEv0oa/kfr6npklKhzENruJzsNE79/TkuPp/FYowbZrZ2vt3IKY+LeQIlDnPtfLuEpIKp854RQkYPNVsxx3bCrH+EuHiEONlrnDr/6eWbfBaLMX6E+boF9iOCHxXzBIQQJQ7z3pMv9558mTDSor7DbHDEXDfKoL7GuMHEmz35B0sz1cXr4jKyeN6eBhsWtxw+6UFGVkl9x1Xf0H5XF61atWKIvYKPHz+W0qGl4d7jL/cef6lYbm/NvXA1NeZ5DiEk/FJKP29Dm+bqyJ8oVV00QkhpqSArG3UnlZix+N+quGWbXofvc2lhpfbPi1wHa66hntLo6TGFRXxCyLI/Xkfsd2ntoPHoaU79BdtQiNZfLtv4Onz/14tGCDke/okQ4mSvUW/BNWBirhshpJmF6k/9TMb+8uTMPpd6CrChY7OZHh30QpY8/yc2hxCy5/C7ju10+vcy3nkgqb5DA1mQVv7k6+srpT03KM/jcju204m4nJqRVdLKQaNpE+VNu9/Wd1CNgJO95tl97fMKyh4/zdl5MCk3r6y+I2qI1FQUCCG5+WWEEEVFppCQ0tKvdQMlJQKBkLS0Qf5UnqoKi/z/okHNlbtuHDZz/i/W6/+Mx+8cMVgshgKLUVLyb40dr0TQ0hbJOt5/Vzfz58//tg15PB6Px6NnBfwSJostoaAkb8OOhBlBzU+Fti8rEwiEZNWWN/SvN6jKvSdfbkRnfE4tbmKoPG6E+ep59hNnxWBEi3IYDDJ5tOXTlzmJyYWEkNjXucXF/AkjzXcceMdgkPEjzBVYDB0txfoOs2FhMMiUMZZPX3y9aFBDFa/b5NGWz+Nyo1CVLlZREf/Zy5yAwWZJHwq/ZJd0c9e3a8H9+Ll8HzL4Xsmo/9OjR49evnxJCLGzs2vVqpWYNZcvX75w4UJ6tukPAWbWgVKP71v59Ta2a6E+a0lsalqxo53G9PFWGVklj/7Jru+4GrQrt9KpibfvCuOTCo7taNvKXvPRU1y0/5g2zsrCVCX4t6fUbE5u2fzVcdMnWPn5GAuE5Mqt9FcJ+QL0Tfmv6eObWZiqBoX8U9+BNDLlrlvHdtqtW2qOntaYuljUl8Xr4kJ+bnFmn2sZX/g6Ie/yzbQWzdTqO6j6h/ELJCMtLW3w4MHXr1/X1NQkhGRnZ3fu3PnIkSN6enqVrh8SEjJ9+nR6tufQB9KO8Jux2cxxw83nLH9x99EXQkjCu8LmlmpDfJsgf6q5z6nF2TmlTYyUHj2t71AakqljLTu00Z4852l65r8dUR/8kz1k4iMNdQU+X5hfyD+1p92n1OJ6DLKhmTrOyrWt9uSQf0QvGlSr4nVr7aDZxFDp/KEO9DqLZ9k8fZEz5fdn9RRjw/UppXhyyD9KHKaqikLml5KFM20+peB/pbyQev40efLkvLy82NhYGxsbQsiLFy/8/f2nTJly+PDhStfncDgcDoeebciNdwoshqIiU7QOgM8Xiu81D+Xo6bC56gqZX/AH719Tx1q6tdf5ee6zz2m8iktz8soIIa0dNLQ0FPGkAm3qOCt3F50pc55WetGgKpVet4Mn35+L/Hcclr82OW/a8/bOfYxfUKVinqCYV6KuqtCulfa2vegCi/ELJOTChQuXL1+mkidCiK2t7ZYtW7y8vKR9XMlSVmI2MVKmpo0MOM0sVHPzytIyeE+eZU8KsOCVCFLTip3sNXp01t+8J7F+Q204Kr1oefmlowabXb+TkZVd0sRQeaK/+cfPRfereExPDk0bZ9XNXe+35S8Ki/jamoqEkPxCPtVBtWcX/XcfirJzS+1aqE8ZbXk8/BM9NJScmz7eqpu7/m/LKrlo2pqK2lpsEyMlQoilmWphET81nZeH3uWEkKqvW1Z2ablu42npPCSmlWrXSovBIMkfi5oYKQeNskz+UBhxGUMAygup508CgUBR8T+9XBUVFRvd++9aNFPftLQlNT15tBUh5O8rqcv+eL1gTdz4kebzprfgqimkpPN2Hnh3+sLneo20Aan0oq3ZHm9lrtqjs76aqkJGVsmDmC+7Dr4rLUNHnq/69zQihGxa0pIuWfbH6wvX0gghpk2Uxw03p+60/SfeHzv7qd6ibGD69zImhGxaJnLRNr76+2oaIaRfD6PAIWZU4ZbljqKLQMx1gxpSU1UYP9JCT5eTm1d6407Gjv2JfD6+zYhQPuqfGEIpj4/Wr1+/7Ozsw4cPGxsbE0I+fvw4bNgwLS2tU6dO1WRzt363pBoeAI3BRNtrrQnRiR1kRdjYfng3BFHhHrI/aP698LrvRK19n7rvRKqkniRu3rw5NzfX3NzcysrKysrK3Nw8Nzd306ZN0j4uAAAAgJRIvf2uadOmjx8/vnLlCjV+gY2NTbdu3aR9UAAAAKgXctJ+J8WTLCoqOnfuHCGEwWBcuXIlMTExMTHx/PnzM2fOLC7GE54AAADQWEmx/mnfvn0RERG9e/cmhGzevNnOzk5ZWZkQEhcXZ2RkNG3aNOkdGgAAAOqHfIzjI8X6p4MHD44bN46ePXTo0LVr165du7Z69epjx45J77gAAAAAUiXF/Ck+Pt7BwYGaVlJSYv7/hYLt2rV78eKF9I4LAAAA9YbBlMC/Bk+K7XfZ2dn0m4DT09PpcoFAIPqGYAAAAIDGRYopnomJyfPnzyuWP3361MTERHrHBQAAgPoiZDDq/q/aoyxfvrxt27bq6ur6+vq+vr6vXr2iFxUXFwcFBeno6Kipqfn5+aWmptKLkpOTfXx8VFRU9PX1Z8yYUVb279sIrl+/3rp1aw6H06xZs71791YbgBTzp169es2bN6/co3ZFRUULFy708fGR3nEBAACg3sik/e7GjRtBQUHR0dGRkZGlpaVeXl4FBQXUomnTpoWHhx8/fvzGjRufPn0aMGAAVc7n8318fEpKSu7cubNv3769e/fOmzePWpSYmOjj49O5c+eYmJipU6eOGTPm4sWL1Zyl9MYfT01NdXJyYrPZwcHBP/zwAyHk1atXmzdvLisre/LkiYGBQU12gvHHQWYw/vg3wPjjIDMYf/wb1Mv447mPI+u+E27r7jVfOT09XV9f/8aNG+7u7jk5OXp6eocOHRo4cCAhJC4uzsbG5u7duy4uLn///Xfv3r0/ffpEZSDbt2+fNWtWeno6m82eNWtWREQE3Wg2ePDg7OzsCxcuiDmoFOufDAwM7ty5Y2NjM3v27P79+/fv3z8kJMTW1jYqKqqGyRMAAAA0LkLCqPs/Ho+Xs8fn/AAAIABJREFUK0J8t+mcnBxCiLa2NiHk0aNHpaWl9Ejd1tbWpqamd+/eJYTcvXvXwcGBzkC8vb1zc3NjY2OpRaKDe3t7e1ObiCHdLu4WFhYXLlxIT0+Pjo6Ojo5OT0+/cOGCpaWlVA8KAAAAjdry5cs1RCxfvryqNQUCwdSpUzt27Ghvb08ISUlJYbPZmpqa9AoGBgYpKSnUItHqG2q6qkW5ublFRUViIpT6+1sIIdra2u3atZPBgQAAAKB+SeT9LSEhIdOnT6dnORxOVWsGBQU9f/48Kiqq7getFVnkTwAAAAA1x+FwxORMtODg4HPnzt28eZN+rt/Q0LCkpCQ7O5uugkpNTTU0NKQW3b9/n96Wei6PXiT6mF5qaiqXy6VemlKVRjBEFQAAADQaMnn+TigUBgcHnzp16urVqxYWFnS5s7OzoqLilStXqNlXr14lJye7uroSQlxdXZ89e5aWlkYtioyM5HK5tra21CJ6E2oRtYkYqH8CAACARiYoKOjQoUNnzpxRV1en+jBpaGgoKytraGiMHj16+vTp2traXC538uTJrq6uLi4uhBAvLy9bW9sRI0asWrUqJSXl999/DwoKomq5JkyYsHnz5pkzZwYGBl69evXYsWMRERHiA5Di+AUSgfELQGYwfsE3wPgFIDMYv+Ab1Mv4BV/+uVH3nWg5VhM5o8IYm6GhoQEBAYSQ4uLiX3755fDhwzwez9vbe+vWrVQjHSHk3bt3EydOvH79uqqqqr+//4oVKxQUvlYkXb9+fdq0aS9evDAxMZk7dy61K3EBVJs/de7cuWKUhJCrV6+K31AikD+BzCB/+gbIn0BmkD99g3rJn7KeSuAPt3ZLt7rvRKqqb79zcnKip0tLS2NiYp4/f+7v7y/NqAAAAAAarurzp/Xr15crWbBgQX5+vnTiAQAAgMasBm+v+w58y/N3w4cP37Nnj8RDAQAAAGgUvuX5u7t37yopKUk8FAAAAGjsJDJ+ZsNXff5Ev7iYECIUCj9//vzw4cO5c+dKMyoAAACAhqv6/InL5dLP3zGZzBYtWixatMjLy0vKgQEAAEDjIyRy0f+p+vxp79690g8DAAAAoNGovpHS0tIyMzNTtCQ7O9vS0lJqIQEAAEBjJWQw6/6vvk+ietXXPyUlJfH5fNESHo/38eNHqYUEAAAAjZZ8jF8gLn86e/YsNXHx4kUNDQ1qms/nX7lyxdzcXNqRAQAAADRM4vInX19fakJ0tHFFRUVzc/O1a9dKNy4AAABohITfNLRkoyMufxIIBIQQCwuLhw8f6ujoyCokAAAAgAatmv5PpaWllpaWWVlZyJ8AAACgWkL56P9UTSWboqLi06dPZRMKAAAAQKNQfSPl8OHDd+/eLYNQAAAAoLHD+AVflZWV7dmz5/Lly87OzqqqqnT5unXrpBkYAAAAQANVff70/Pnz1q1bE0Jev35NFzLko3UTAAAAagXvb/nq2rVrMogDAAAAvgONovWt7uTiJAEAAAAkqPr6J0LIw4cPjx07lpycXFJSQheGhYVJLSoAAABolDB+wVdHjhzp0KHDy5cvT506VVpaGhsbe/XqVfp1LgAAAADypvr8admyZevXrw8PD2ez2Rs3boyLixs0aJCpqakMggMAAIDGRUgYdf9X3ydRverzp4SEBB8fH0IIm80uKChgMBjTpk3bsWOH9GMDAAAAaIiqz5+0tLTy8vIIIU2aNHn+/DkhJDs7u7CwUOqhAQAAQGOD8TO/cnd3j4yMdHBw+PHHH3/++eerV69GRkZ27dpVBsEBAAAANEDV50+bN28uLi4mhMyZM0dRUfHOnTt+fn5z586VfmwAAADQyDSK3kt1Jy5/evHiha2trba2NjXLZDJnz55NTa9evXrGjBlSjw4AAACg4RHXxOjt7Z2cnFyxfM2aNXPmzJFaSAAAANBYyUn/J3EhdurUqVu3bunp6aKFa9euDQkJ+euvv6QcGAAAADQ+GL+A7N+/38rKytvbOzc3lypZv3797Nmz9+3bN3jwYJmEBwAAANDgiMufFBQUwsLClJWVe/fuXVxcvGHDhhkzZoSGhg4dOlRm8QEAAEAjIiftd9U8f6esrHz+/HkPDw9nZ+fXr1+HhoYOHz5cNpEBAAAANEzi8qezZ89SExMnTvz55599fX01NDTowr59+0o9OgAAAGhUGkXvpbpjCIXCqpYxmVVWoDEYDD6fL52Q/sOt3y0ZHAWAEMJgysX/eckSCqr8AgGQLKFAUN8hND5R4R6yP+jbhIS678TSyqruO5EqcfVPggZws+I/DMiMEPcaAECdCRly8Vu0EXTRAgAAAGhQqn9/CwAAAEANCYVyUf+E/AkAAAAkRigfTVtycZIAAAAAEoT6JwAAAJAYORm/oPr6p/fv33/48IGavn///tSpU3fs2CHlqAAAAAAarurzp6FDh167do0QkpKS0r179/v378+ZM2fRokXSjw0AAAAaGbw/+Kvnz5+3a9eOEHLs2DF7e/s7d+4cPHhw79690o4MAAAAoGGqvv9TaWkph8MhhFy+fJl6Z4u1tfXnz5+lHhoAAAA0No2i9qjuqq9/srOz2759+61btyIjI3v06EEI+fTpk46OjvRjAwAAAGiIqs+fVq5c+eeff3p6eg4ZMsTR0ZEQcvbsWapFDwAAAECUnPR/qr79ztPTMyMjIzc3V0tLiyoZN26cioqKlAMDAACAxgfjj/+LxWLRyRMhxNzcXFrhAAAAADR4VeZPrVu3vnLlipaWVqtWrRiVvUv58ePH0gwMAAAAGp9G0fpWd1XmT/369aMeu/P19ZVhPAAAAAANHUMoFNZ3DOJ06nOjvkMAAABolKLCPWR/0OfxKXXfiX0zw7rvRKpq+v67kpKStLQ0gUBAl5iamkonJAAAAIAGrfr86fXr16NHj75z5w5dIhQKGQwGn8+XZmAAAADQ+Mh7/yfaqFGjFBQUzp07Z2RkVGlHcgAAAAC5Un3+FBMT8+jRI2traxlEAwAAAI0axn/6ytbWNiMjQwahAAAAQGMnkI/2uxq9v2XmzJnXr1/PzMzMFSGD4AAAAAAaoOrzp27dukVHR3ft2lVfX19LS0tLS0tTU1N0OHIAAAAAimzef3fz5s0+ffoYGxszGIzTp0/T5QEBAQwRPXr0oBdlZWUNGzaMy+VqamqOHj06Pz+fXvT06VM3NzclJaWmTZuuWrWqJqdZffvdtWvXarIjAAAAANkoKChwdHQMDAwcMGBAuUU9evQIDQ2lpqmRwCnDhg37/PlzZGRkaWnpqFGjxo0bd+jQIUJIbm6ul5dXt27dtm/f/uzZs8DAQE1NzXHjxokPoPr8ycOjHkbfAgAAgP+1d99xTV39H8BPCCRAwt4ggoiACwUH4kILFZWqqLVosYJatRatCwdaR7VKXbgeR8VfQX2wjop7i4ALBZGlDAGRoQxlg7KS+/vjtmke9sgA+bxf/HHvuTf3nBxj8s33nHvSEUlm/vi4cePGjRtX7yE2m62rW3v5zYSEhJs3b0ZERAwcOJAQcuDAgfHjx+/atUtfXz8gIKCqquqPP/5gsVi9e/eOjo728fFpMn5qevyOEPLgwYOZM2cOHTr07du3hJCTJ08+fPiwOQ8EAAAAaKnKykrhKdeVlZXNf2xISIi2tra5ufnChQvz8/PpwrCwMFVVVTp4IoQ4ODjIyMg8ffqUPjRy5EgWi0UfcnR0TEpKKiwsbLyWpuOn8+fPOzo6KigoPH/+nH4CxcXF27Zta/4zAQAAgE5CJPOfvL29VYR4e3s3s/axY8eeOHEiKCho+/btoaGh48aNo5f7zsnJ0dbWFpwmKyurrq6ek5NDH9LR0REcorfpQ41oevzu119/PXLkyKxZs06fPk2XDBs27Ndff23mMwEAAABoES8vr+XLlwt2hacxNW769On0Rt++fS0tLbt37x4SEmJvby/yFjYdPyUlJY0cOVK4REVFpaioSORNAQAAgI5OJPOf2Gx282OmhpiYmGhqaqakpNjb2+vq6ubl5QkO1dTUFBQU0NOkdHV1c3NzBYfo7bozqGppevxOV1c3JSVFuOThw4cmJiYteg4AAADQGUhm/YLmyMrKys/P19PTI4TY2toWFRVFRkbSh+7du8fn821sbOhD9+/fr66upg/duXPH3Ny8yXWamo6f5s2bt2TJkqdPnzIYjHfv3gUEBHh6ei5cuLAVz6SsrAwrcAIAAEAblZWVRUdHR0dHE0LS0tKio6MzMjLKyspWrlz55MmTN2/eBAUFTZo0ydTU1NHRkRDSs2fPsWPHzps3Lzw8/NGjR4sWLZo+fbq+vj4h5Ntvv2WxWHPnzn358uWZM2f27dsnPHTYkKbH79asWcPn8+3t7T9+/Dhy5Eg2m+3p6bl48eLmP8m0tLRFixaFhIRUVFTQJRRFMRgMekoXAAAAfDYks37Bs2fPRo8eTW/T4Y6bm9vhw4djY2OPHz9eVFSkr68/ZsyYLVu2CMYBAwICFi1aZG9vLyMjM3Xq1P3799PlKioqt2/f9vDwGDBggKam5oYNG5pcvIAQwqAoqjkNraqqSklJKSsr69WrF5fLbdGTHDZsGEVRS5Ys0dHRYTD+7dbmrCw1fEJoi+oCAAAA2sMrUljBMTyxuO0XGWyh0vaLiFVj+ae6a3r++zBZWV1d3S+//HLChAlN1hETExMZGWlubt6aBgIAAEDHwZd2AySjsflPKg1TUFBITk52cXHZsGFDk3UMGjQoMzNTdG0GAAAAkKbG8k+Cn49pyNWrV3/88cfNmzc3ftqxY8d++OGHt2/f9unTR05OTlBuaWnZ/IYCAABA+yeZ+U9S1/T88UYMHz5csBR6I96/f5+amjp79mx6l8FgYP44AAAAdFxtip9UVVUDAwObPG3OnDlWVlZ//vlnrfnjAAAA8JkR1epN7Vyb4qdmSk9Pv3z5sqmpqQTqAgAAACnqJON3Ta+f2XZffPFFTEyMBCoCAAAAkABJ5J8mTJiwbNmyuLi4vn37Cs8fnzhxogRqBwAAAInpJON3zV0/sy1kZOrJcjVz/jjWzwQAAGgdqayf+TC+vO0XGd6L0/aLiJUk8k98fidZTAsAAKCz44s9LdMuSGL+EwAAAMDnRBL5p4YW2GzO2uUAAADQgXSS+U+SiJ8uXLgg2K6urk5LS5OVle3evTviJwAAAOiIJBE/RUVFCe+WlJS4u7tPnjxZAlUDAACAJGH9J3FRVlb+5Zdf1q9fL/mqAQAAQKwoSgR/7Z905o8XFxcXFxdLpWoAAACANpLE+N3+/fsF2xRFZWdnnzx5cty4cRKoGgAAACSJj/njorJnzx7BtoyMjJaWlpubm5eXlwSqBgAAABA5ScRPaWlpEqhF8mZ+bfiDm8nZS1n7j6VKuy3tXb/eKt9OMTTvztXUYHttffHgSb60W9TB4MXWfDO/NrQbqmlkoFhZxY9LLDns/zrz7SdpN6ojwYutmebMMJrzrbFgNz3ro+vCCOk1px3pJPPHJRE/fZYseihNHKuXklYm7YZ0DAryzJS0smt3sret6yPttnQ8eLG1iFUf1cBr7xKTS5kyjPmzuu3ZbDnzx4iKSvwKQrPgxdYir9PLl/4cQ2/zOsmq2/APScRP5eXlv/32W1BQUF5envBvubx+/VoCtYuDgrzMxhUWOw68cnMxknZbOoYnkQVPIguk3YoOCS+2llqxKU6wvW1v0tWAoeamSjEvccNK0/BiaykejyooqpZ2K9qdDnH3XNtJIn76/vvvQ0NDv/vuOz09PQbjc0jrLf+hx+NnBc9iivAuA+KGF1tbcDhMQkhJKT7hmgUvtpbqoq9w0X9IVTX/RWLJ7yfSct9XSrtFIDmSiJ9u3Lhx7dq1YcOGNefkysrKysp/X4J8XpUMkyW2prWG/Qgts+7cecufS7sh8PnDi60tGAzy0zzT2PjitIyP0m5LB4AXW0vFvyrdtjcx4+0nDTXW7BlGB3/r/92iZ58+8aTdLunrJL/fIon1n9TU1NTV1Zt5sre3t4qQrJQAsbatpbQ12UvmmW7enVhV3TkSlCA9eLG10fIfeph05WzcES/thnQAeLG1wpPIguBHH1LflIdHFa78JY7Lkf1iuJa0G9Uu8CkR/LV/DEr8A5X//e9/L126dPz4cUVFxSZPrpV/Gjv9abvKP40YouG9rk8N7+9Ok2Uy+HyKT5EvptznY35qMzy8Yof775oJL7a2WLbAdLiNxiKvmOzcCmm3pQPAi63tfH2snkUX/X6ifd1v/vCKneQrvRld1faLjO3fjj766yWJ8bvdu3enpqbq6OgYGxvLyckJyp8/rydRzGaz2Wy2YLddBU+EkGcxRd95/HuH6tql5ulZnwL+ysBbDIgcXmyttmyB6UhbzcUInpoNL7Y2UpCXMdBVuFWYJ+2GtAtYv0BknJ2dJVCLZHz6xBOeS1FRwS8pqcbsiiYpyMsY6CnQ23o68qbdOKVlNZhr2Ti82FpnxUJTh5E6XltffPxUo64qRwgp+8irqkIg0Bi82FrBY47Jo/D8nLwKTXX23G+NeXzqbijip05EEvHTxo0bJVALtGcWpkoHvPvT2z99b0oIuR6Us21vklQbBZ+nyeMNCCH/+ef1RgjZujfxRlCu9FoEnyctDfYmz57KynJFxdWx8cULPKOKSnCnJyGdZv0CScx/aovhE0Kl3QQAAIAOSSrzn64/F0EcOd5arumTpEqM+Sd1dfVXr15pamqqqanVu+xTQQEWVAQAAPis4PeD22rPnj1KSkr0xuexbCYAAAAAEWv85ObmRm+4u7uLrxYAAABoP9r3tCCRkcT6mUwmMy/vf+5KyM/PZzKZEqgaAAAAJImiGG3/k/aTaJok4qe6U9QrKytZrPa1sBMAAABAM4l3/YL9+/cTQhgMxrFjx7hcLl3I4/Hu379vYWEh1qoBAABA8jrEr6+0nXjjpz179hBCKIo6cuSIYMCOxWIZGxsfOXJErFUDAAAAiIl446e0tDRCyOjRowMDA9XU1MRaFwAAAEhdJ5k/Lon1x4ODgyVQCwAAAIBkSCJ+IoRkZWVdvnw5IyOjqurfn2X28fGRTO0AAAAgGRTWzxSVoKCgiRMnmpiYJCYm9unT582bNxRFWVtbS6BqAAAAAJGTxPoFXl5enp6ecXFx8vLy58+fz8zMtLOzmzZtmgSqBgAAAEniUyL4a/8kET8lJCTMmjWLECIrK/vp0ycul7t58+bt27dLoGoAAAAAkZNE/MThcOhpT3p6eqmpqXThhw8fJFA1AAAASBJFieCv/ZPE/KchQ4Y8fPiwZ8+e48ePX7FiRVxcXGBg4JAhQyRQNQAAAEhSh4h+2k4S8ZOPj09ZWRkh5JdffikrKztz5kyPHj1w8x0AAAB0UJKIn0xMTOgNDoeDZccBAAA+Y/yO8Ou/bSeJ+U8AAAAAnxMx5p/U1NQYjMaC0IKCAvHVDgAAAJKH+U9ttXfvXvFdHAAAAEBaxBg/ubm58Xi8Xbt2Xb58uaqqyt7efuPGjQoKCuKrEQAAAKSrk+SfxDv/adu2bWvXruVyuQYGBvv27fPw8BBrdQAAAAASIN746cSJE4cOHbp169bFixevXLkSEBDA5/PFWiMAAABIEX6/RQQyMjLGjx9Pbzs4ODAYjHfv3om1RgAAAJAiimK0/U/aT6Jp4o2fampq5OXlBbtycnLV1dVirREAAABA3MS7fiZFUe7u7mw2m96tqKj44YcfOBwOvRsYGCjW2gEAAEDCOsn8cfHGT25ubsK7M2fOFGt1AAAAABIg3vjJz89PrNcHAACAdqVDzP5uO/x+CwAAAHQw9+/fnzBhgr6+PoPBuHjxoqCcoqgNGzbo6ekpKCg4ODgkJycLDhUUFLi6uiorK6uqqs6dO7esrExwKDY2dsSIEfLy8oaGhjt27GhOAxA/AQAAgMhQlAj+mlReXt6vX7+DBw/WKt+xY8f+/fuPHDny9OlTDofj6OhYUVFBH3J1dX358uWdO3euXr16//79+fPn0+UlJSVjxowxMjKKjIzcuXPnpk2bjh492mQDGFT7nug1fEKotJsAAADQIT28Yif5Sv2CRXCR2aObeyaDwbhw4YKzszMhhKIofX39FStWeHp6EkKKi4t1dHT8/f2nT5+ekJDQq1eviIiIgQMHEkJu3rw5fvz4rKwsfX39w4cPr1u3Licnh8ViEULWrFlz8eLFxMTExutF/gkAAABERiT5p8rKyhIhlZWVzak6LS0tJyfHwcGB3lVRUbGxsQkLCyOEhIWFqaqq0sETIcTBwUFGRubp06f0oZEjR9LBEyHE0dExKSmpsLCw8boQPwEAAIDIiGT9cW9vbxUh3t7ezak6JyeHEKKjoyMo0dHRoQtzcnK0tbUF5bKysurq6oJDtR4iuFQjxHv/HQAAAEBLeXl5LV++XLArWEiy/UD8BAAAACIjkmnVbDa7FTGTrq4uISQ3N1dPT48uyc3N7d+/P30oLy9PcGZNTU1BQQF9vq6ubm5uruAQvU0fagTG7wAAAOBz0K1bN11d3aCgIHq3pKTk6dOntra2hBBbW9uioqLIyEj60L179/h8vo2NDX3o/v37gt+Xu3Pnjrm5uZqaWuN1IX4CAAAAkeHzRfDXpLKysujo6OjoaEJIWlpadHR0RkYGg8FYunTpr7/+evny5bi4uFmzZunr69O35vXs2XPs2LHz5s0LDw9/9OjRokWLpk+frq+vTwj59ttvWSzW3LlzX758eebMmX379gkPHTYE43cAAADQwTx79mz06L8XOaDDHTc3N39//1WrVpWXl8+fP7+oqGj48OE3b96Ul5enTwsICFi0aJG9vb2MjMzUqVP3799Pl6uoqNy+fdvDw2PAgAGampobNmwQLA3VCKz/BAAA8HmSyvpPR26J4CI/OIrgImKF8TsAAACAlsH4HQAAAIhM+x7WEhnETwAAACAy/M4RP2H8DgAAAKBlkH8CAAAAkRHRfWkMUVxEjJB/AgAAAGgZ5J8AAABAZDrJ/HHknwAAAABaBvknAAAAEJnm/PrKZwD5JwAAAICWQf4JAAAARKaTzH9C/AQAAAAig/UzAQAAAKAe7T3/JMtmSbsJHZKsnJy0mwCdAkOmva9x1z4xZPDdtcUqyz9JuwnQLJ1k/A7/hwEAAABapr3nnwAAAKADoUQzAaq957aRfwIAAABoGeSfAAAAQGRw/x0AAAAA1AP5JwAAABCZTnL/HeInAAAAEBl+5xjAw/gdAAAAQMsg/wQAAAAi00nG75B/AgAAAGgZ5J8AAABAZJB/AgAAAIB6IP8EAAAAIsPvHAko5J8AAAAAWgb5JwAAABAZii/tFkgE4icAAAAQGQrjdwAAAABQF/JPAAAAIDL8zjF+h/wTAAAAQMsg/wQAAAAig/lPAAAAAFAP5J8AAABAZPidIv2E/BMAAABACyH/BAAAACJDdY4EFOInAAAAEJnOMX0c43cAAAAALYT8EwAAAIgMv3OM3yH/BAAAANAyyD8BAACAyGD9TAAAAACoB/JPAAAAIDIUfj8YAAAAAOpC/gkAAABEho/5TwAAAABQF/JPAAAAIDKd5P47xE8AAAAgMlg/EwAAAADqgfwTAAAAiEznGL5D/gkAAACghZB/AgAAAJGhMP+p7aqrq2VlZV+8eCHWWgAAAAAkSbz5Jzk5ua5du/J4PLHWAgAAAO0E1s8UjXXr1q1du7agoEDcFQEAAABIhtjjp//85z/379/X19c3Nze3FiLuegEAAEDyKD7V9r8ma9m0aRNDiIWFBV1eUVHh4eGhoaHB5XKnTp2am5sreEhGRoaTk5OioqK2tvbKlStramra8jTFPn/c2dlZ3FUAAABAOyGx+eO9e/e+e/cuvS0r+3c8s2zZsmvXrp07d05FRWXRokVTpkx59OgRIYTH4zk5Oenq6j5+/Dg7O3vWrFlycnLbtm1rde1ij582btwo7ioAAACgs5GVldXV1RUuKS4u/r//+79Tp0598cUXhBA/P7+ePXs+efJkyJAht2/fjo+Pv3v3ro6OTv/+/bds2bJ69epNmzaxWKzW1S6J9Z+KioqOHTvm5eVFz4J6/vz527dvJVAvAAAASBifEsFfZWVliZDKysq6FSUnJ+vr65uYmLi6umZkZBBCIiMjq6urHRwc6BMsLCy6du0aFhZGCAkLC+vbt6+Ojg59yNHRsaSk5OXLl61+mmKPn2JjY83MzLZv375r166ioiJCSGBgoJeXl7jrBQAAgA7K29tbRYi3t3etE2xsbPz9/W/evHn48OG0tLQRI0aUlpbm5OSwWCxVVVXBaTo6Ojk5OYSQnJwcQfBEl9OFrW6h2Mfvli9f7u7uvmPHDiUlJbpk/Pjx3377rbjrBQAAAMkTyfwnLy+v5cuXC3bZbHatE8aNG0dvWFpa2tjYGBkZnT17VkFBoe1VN5PY808RERELFiwQLjEwMGhLxAcAAACfNzabrSykbvwkTFVV1czMLCUlRVdXt6qqih7souXm5tJzpHR1dYXvxaO3a02fahGxx09sNrukpES45NWrV1paWuKuFwAAACSPEoUW1VhWVpaamqqnpzdgwAA5ObmgoCC6PCkpKSMjw9bWlhBia2sbFxeXl5dHH7pz546ysnKvXr1a/TTFHj9NnDhx8+bN1dXVhBAGg5GRkbF69eqpU6eKu14AAAD4XHl6eoaGhr558+bx48eTJ09mMpkzZsxQUVGZO3fu8uXLg4ODIyMjZ8+ebWtrO2TIEELImDFjevXq9d1338XExNy6devnn3/28PBoPK3VOLHPf9q9e/fXX3+tra396dMnOzu7nJwcW1vbrVu3irte0dJUZy2Y2XWwlao8i/k2p2L7oZSk1HL60GwXw68ctLmKsi+SSnyOpr3NqZBuU9sPBXkZ928Mhg9UVVWRS3nz8dDxjKTXHwkhqiqy82Z0GWCpzFVkxiWW/cc/421OPTdWdFoN9RshpKvT2I9cAAAgAElEQVS+/PffdunXkysjw8h4W/HLntS8/CrptlZa+lpwpznpmHVT1FBjbfRJeRxZTJcPH6j6lYNWD2NFZSXZH9bGp6Z/ost1NFn/3de31kW27Eu9H15EOpO+5pxpTjo9jBU11OQ27X0t6LfvJuuOGqKmpSFXXUMlp33y/+tdYurfrzolDtNjVhcbKxWKTz18VnzoZFZFJV96z0DK3F0MZ7sYCnbTsz7O+imaELLiB5MBlqqaanKfKvgvkkp/P5me8faT9JopZXyJrP+UlZU1Y8aM/Px8LS2t4cOHP3nyhB7a2rNnj4yMzNSpUysrKx0dHQ8dOkSfz2Qyr169unDhQltbWw6H4+bmtnnz5rY0gNHSLFnrPHz4MDY2tqyszNraWnBjYXOM+jpMfK1qJi6HeWynZdSLkku3c4tKqrvoyb/LqXiXW0kImeGs7zrZwPs/Kdl5lXOmG5p0VXRfGl1VLf2f/pGVk5N2E8jPP5kYGyrs+7/0/MJqh+EaU8drz/F8mV9Yvf8Xixoe9ft/M8s/8b4erzuon/LclS878ztyLQ31m542++CvPW+EfAh+nF/+kW9sKJ+QXF5U0qb1c9uOIcOQSr2D+in3NuMmp33ctKy7cPzkMFxdV4udX1i1fJ6xcPwkwyAqyv9+XXT6Qmuak46LR6y0XngMGUmsHVPXIEvl3mac5LSPG5eaCMdPo23VikpqsvMq2SyZKWO1Rg5Wc/eMLy6tIYRs9eyuriq7zy+TyWR4zuua9Prjb4fTpdL4ynLpRyTuLoZ2thorNv190zuPR9G9NOFLnfS3n/LeVyopyc52MTQ15kxfGMlvB+9qoYFDJV/p91s/tP0ix9Zptv0iYiX2/FNmZqahoeHw4cOHDx8u7rrE5Ftng7z8qu2HUundnLx/kyVfO+mdPJ/1KKKQEOJ9IOXCsYHDB6vfe5QvnYa2Jyw5xojBaht2p8QllhFCTpx/N8RaZeKXWrfv5/cy485d+SI9q4IQsu+P9LOH+40eqn4jWAT/3z4DDfWb39l3c1wMnkYX+57Kos/MzuvUSbuImJKImJK65XcfFhBCdDRrL4jHp0hh8b+x5rCBqqFPCzth1B4RWxIRW0+/BYcVCrZ/D3g7bpRmN0P56PgyQ332oH7KHhsSk9M+EUIOnsj61bP70T/fFhRJOXCXIh6PKiiqrlV45c7fE5Nz3lceO5Xht6e/rhab/poNnyuxfwcyNja2s7Pz9fUtLCxs+ux2aehAtaTUsk0rzC7830DfnZZODtp0uZ42W0ONFRn79xe48o+8+OSyXmZK0mtpO8JkMphMRlXVv59PVVX8PuZKLDkZQkhV1d8pOooi1TVUH3OudFrZ/jTUbwwGsbFSycqu+G1Nj3NH+h3YYjF0oGoj14FG9DBWNDVWvBmCkL0eskzG+C80y8prXmd8IoT0MuWUltfQwRMh5PnLUooiPbtzpNpGKeuiJ3/+2MA/D1n/vLSHdp1IXZ4tM+4L7Xc5FZ12bJ1I6vfvpE7s8dOzZ88GDx68efNmPT09Z2fnv/76q95VRAVqLTnK50n/JaivIz9pjG5W9qeVv8ZfupXz0+xujnZahBB1NTlCiPAXkcLiKnVV6Q+ctQefKvgvX5XNnKKvoSYnwyD2w9V7mnHVVeUy3lXkvq/8foYBl8OUZTJcJuhqa7A00Gn/aKjfVJVlFRWY0yfqRsSUrPF+9SiiaNOy7pY9EXe2xthRGulvP8Unl0u7Ie2LTX/lS76WV//oN8VRa8321JIyHiFETUVOeIyYzyel5TVqnfg/bMKr0t8OpKzcEu9z9LWeNvvA1r4K8n9/jDqP1b0RYHPrzyE2VqorfnlZU9MBIgBoC7HHT1ZWVjt37szIyLhx44aWltb8+fN1dHTmzJnT0Pm1lhzNSDoh7hY2icEgr9LKj53KTEn7ePVu3tWg3IljdJp+WKf328E0wiBnDvW7cXLAZEed4McFfIri8ahNe1INdOUvHrO6dty6f2+lp1HFHeGbhuTU228yMgxCSFhk0fkbuanpn05fznkSVfyVA9YBaTGWHOOLoepIPtUVk1C2cF3i0s2vnsWV/rzYWFVZ7LM7OqKnUUUhYfmv0z9GRBet/jWBq8gcPezvaTp37r//3jNm8c8vsrIrNnmas+SkMzWwPUD+SZQYDMbo0aN9fX3v3r3brVu348ePN3Sml5dXsZCu5rMk08JG5BdVp2d+FOymZ33S1mQTQgoKqwkhwgknNRVW3XHxTis7r3LF5qSv3J/PWBS7aH2CLJNBTx1LTvv4g1f8pDlR3yyM8fotWVmJ2cmn8tRSb78Vl9TU1PDT3/57d2fG20/aGq2/87bTGmmjxmbL3HlQIO2GtDsVlfx3eVWJqR99jmXweNRYOw1CSGFxtXAgJSNDlDiyhXiXI4QQUvaRl5VdYaArT++Wf+S9za6IjS/ZsDOpq4HCCBsN6TYPxE1C8VNWVtaOHTv69+8/ePBgLpd78ODBhs6steSoDLOVP4wsQi8SSw0N/l0S3lBfPvdDJSEkO68yv7DKuq8KXa6owOzVgxv/qlQ6rWyvKir5BUXVXA5zoKXy42f/3ite/olXXFpjoMs2M+EIlwOtVr/V8Kik1x+76MkLTuiiJ5/3AXFni4210wx7XkzfMwUNYTAYcrIMQkh8SrkSR7aH8d9vgFa9lBgMkpCKoU9CCFGQl9HXYRcU1p5kwiCEwSBynTj/JIr0UwfIP4k9Q/v777+fOnXq0aNHFhYWrq6uly5dMjIyEnelonXu6ruDW/u4TjEIeZxvYcr9ykFn9++v6UN/Xcv+bmqXrOyK7LzKudMNPxRWPQzH99q/DbRUZjBI5rsKfV35+d92yXxXcTM0nxAy0katuKQmL7+ym6Hij26GjyOKIuPquSGo02qo385eyfl5iUlcYmn0y9JB/ZRtrVVXbEmSdmOlRp4tY6D7d/pNV4vd3UihpKzmfX61Eoeprfn3jDo63Cwoqhbceaevw+5rwV23M0VazZY6ebaMvo6g31gmXRVKy2tKy3gzJuqEPS8uKKpWUZKd4KClqSZHr4yV+a4yIqZk6dyu+/0ymUyGx6wuIU8KO/PNdwvdjB5HFOa+r9RQZ82Zbsjnk7sPP+jpsL8YphkRXVRUUq2lwXadYlBZxX/yHF8LP3NiX//J0NBwxowZrq6u/fr1a8XD28P6T4QQ2wGq87416qInn51XcfZq9rW7eYJDs10MJzhoczmycYkle3zTsrLbxfqZ7WH9J7shanOnG2iqs0rLah6EF/mdeVv+iUcIcXbU/maCrpqKbEFh9Z0H+f8NzK7hdYCvGhLTUL8RQsaO0pg+UU9Lg5X5ruLEX+8eR0r/DVpa6z9Z9uTu/tlcuOT2/Q87f08fM1Jj5QJj4fIT59+dDMymt+d8o28/TGPm0jipf7mV1vpPlhbcXet6CJfcfpC/zy/Ta6GxRXdFZSXZ0jJe0uvyU5dyX6X9z/qZQ6xUKIo8iCiS4vqZ7WH9pw3Lzfr1UlZWki0qqY5LKD0WkP4ut1JDTW7Vj6Zm3TlKHNnC4uqY+JLjZzMz37WLzwKprP/ktkEEP3F7fHPrf5lOMsQeP1EUxWC0/h22ncRPHU57iJ+gM5BW/NTRSSt+6tDaQ/zU4Uglfpq1PrvtFzmxRa/tFxErcY3fxcbGNn6CpaWlmKoGAAAAECtxxU/9+/dnMOpJbtGFDAaDx+OJqWoAAACQFsn8/p3UiSt+SktLE9OVAQAAAKRLXPFTh7vJDgAAANquQ6x+2Xbiip8uX748btw4OTm5y5cv13vCxIkTxVQ1AAAAgFiJK35ydnbOycnR1tZ2dnauexTznwAAAD5L4r6vv50QV/zE5/NrbQAAAAB8HsS4BklYWNjVq1cFuydOnOjWrZu2tvb8+fMrK/G7EwAAAJ8his9v+5+0n0TTxBg/bd68+eXLl/R2XFzc3LlzHRwc1qxZc+XKFW9vb/HVCwAAANIiivCpA4wAijF+io6Otre3p7dPnz5tY2Pj6+u7fPny/fv3nz17Vnz1AgAAAIiVGH8/uLCwUEdHh94ODQ0dN24cvT1o0KDMzEzx1QsAAADS0knmj4sx/6Sjo0OvollVVfX8+fMhQ4bQ5aWlpXL4dTYAAADosMSYfxo/fvyaNWu2b99+8eJFRUXFESNG0OWxsbHdu3cXX70AAAAgLVg/s622bNkyZcoUOzs7Lpd7/PhxFotFl//xxx9jxowRX70AAAAAYiXG+ElTU/P+/fvFxcVcLpfJZArKz507x+VyxVcvAAAASAvyT6KhoqJSq0RdXV3clQIAAACIj9jjJwAAAOg8+FQHWP2y7RA/AQAAgMh0kvE7Ma5fAAAAAPBZQv4JAAAARAb5JwAAAACoB/JPAAAAIDL4/RYAAAAAqAfyTwAAACAyfH6nWL8A+ScAAACAlkH+CQAAAESmk9x/h/gJAAAARIbqHOuPY/wOAAAAoGWQfwIAAACR6STjd8g/AQAAALQM8k8AAAAgMsg/AQAAAEA9kH8CAAAAkeHj/jsAAAAAqAv5JwAAABCZTjL/CfETAAAAiAyF378DAAAAgLqQfwIAAACR6STjd8g/AQAAALQM8k8AAAAgMvj9YAAAAACoB/JPAAAAIDJ8zH8CAAAAgLqQfwIAAACRwfpPAAAAAFAP5J8AAABAZDrJ+k+InwAAAEBksH4BAAAAANQD+ScAAAAQmU4yfof8EwAAAEDLIP8EAAAAIoP1CwAAAACgHgyK6hTjlCJXWVnp7e3t5eXFZrOl3ZYOA53WOui3VkCntQI6rXXQb50T4qdWKikpUVFRKS4uVlZWlnZbOgx0Wuug31oBndYK6LTWQb91Thi/AwAAAGgZxE8AAAAALYP4CQAAAKBlmJs2bZJ2GzoqJpM5atQoWVmsAdEC6LTWQb+1AjqtFdBprYN+64QwfxwAAACgZTB+BwAAANAyiJ8AAAAAWgbxEwAAAEDLdK74yd3dXdpNAACQDnd3d2dnZ7FW4e/vHxISItYqJMzY2Hjv3r3SbgW0R50rfqorMDBwzJgxGhoaDAYjOjpaUF5QULB48WJzc3MFBYWuXbv+9NNPxcXFgqMZGRlOTk6Kiora2torV66sqamhy/39/VVVVQWnJSQkGBoaTps2raqqSmLPqO1+++03BoOxdOlSQcnBgweNjY3l5eVtbGzCw8OFT7azs5szZ45gd+/evRwO5/Dhw62r+u3btzNnztTQ0FBQUOjbt++zZ8+abEOtj4S//vpLXl5+9+7drWuACNssmU7j8Xjr16/v1q2bgoJC9+7dt2zZInxHSPvptEbaKZmOun///oQJE/T19RkMxsWLF4UPeXt7Dxo0SElJSVtb29nZOSkpSfioOPpQAnEMIeTNmze13takKz8/v0uXLgwGo6ioSFAYEhJibW3NZrNNTU39/f0F5eJ4iY4aNUr4bY3UeccGaBmqE3j//v2sWbMMDQ1ZLFb37t2//vrryspK+tCJEyd++eUXX19fQkhUVJTgIXFxcVOmTLl8+XJKSkpQUFCPHj2mTp1KH6qpqenTp4+Dg0NUVNT169c1NTW9vLzoQ35+fioqKvR2eHi4hobG999/z+PxGmlbWlpau/pXCA8PNzY2trS0XLJkCV1y+vRpFov1xx9/vHz5ct68eaqqqrm5ufQhPp+vpKR04MABiqLKy8u//fZbPT29R48eta7qgoICIyMjd3f3p0+fvn79+tatWykpKU22wc3NbdKkSfS2r68vfVqrn76o2iyxTtu6dauGhsbVq1fT0tLOnTvH5XL37dtHH2pXndZQOyXWUdevX1+3bl1gYCAh5MKFC8KHHB0d/fz8Xrx4ER0dPX78+K5du5aVldGHxNSHwo8VH/q9RfhtTaz13rt3b+jQocrKyqqqqlZWVocOHap1wqRJk8aNG0cIKSwspEtev36tqKi4fPny+Pj4AwcOMJnMmzdv1m2qqF6idnZ2grc1mvA7dkOMjIz27NnTxqrhs9SOPrnFZ+bMmWZmZiEhIc7Ozvfu3Vu1atWnT5+ET6j7RlPL2bNnWSxWdXU1RVHXr1+XkZHJycmhDx0+fFhZWZkOyAT/G4OCgrhc7qpVq5psW7uKn0pLS3v06HHnzh3hN5rBgwd7eHjQ2zweT19f39vbm96lv6k/evTo9evX/fr1s7W1fffuXatrX7169fDhw+s91EgbBO+z27dvl5eXDwwMbHUDWqGhNkus05ycnObMmSPYnTJliqura5NtkHynNdROiXWUQN34SVheXh4hJDQ0lN4VUx82FMfExcWNHTuWw+Foa2vPnDnz/fv3dPm5c+f69OkjLy+vrq5ub29Ph3fBwcGDBg1SVFRUUVEZOnTomzdv6j5TATs7O0G9O3fu1NXVVVdX//HHH6uqquiTT5w4MWDAAC6Xq6OjM2PGDEGYGBwcTAi5e/fugAEDFBQUbG1tExMT67a8sLBQSUlp3rx5mzdv9vX1PXv2bK346dChQ3Z2dkFBQcLx06pVq3r37i04x8XFxdHRse3d25BG4qdGekY4fvL19VVRUbl79y59tcWLF69cuVJNTU1HR2fjxo2Cy6anp0+cOJHD4SgpKU2bNo3+sCgqKpKRkYmIiKAoisfjqamp2djY0OefPHmyS5cu1D8fB+fPnx81apSCgoKlpeXjx4/b/sRBTDrF+F1UVNSsWbPs7OxUVFRGjx5N/4ds0RXoH4ak10YLCwvr27evjo4OfcjR0bGkpOTly5eCky9cuODk5PTzzz9v375dhM9CAjw8PJycnBwcHAQlVVVVkZGRghIZGRkHB4ewsDB6NzIykslk5ubmDhw40MbGJiQkRE9Pr9W1X758eeDAgdOmTdPW1raysqKTgk22gbZ69eotW7ZcvXp18uTJrW6AqNosyU4bOnRoUFDQq1evCCExMTEPHz6kv+K3t06rt52S7Khmoofp1dXVicT7sKio6IsvvrCysnr27NnNmzdzc3O/+eYbQkh2dvaMGTPmzJmTkJAQEhIyZcoUiqJqamqcnZ3t7OxiY2PDwsLmz5/PYDBqXZAebbx79252djadeCOEBAcHp6amBgcHHz9+3N/fXzBkVl1dvWXLlpiYmIsXL75586bWVNF169bt3r372bNnsrKywiOqAikpKaWlpRs3bjQ0NDQ1NZ02bdrChQsFR+Pj4zdv3nzixAkZmf/5xAkLCxN+t3F0dJTiS7ShnhHYsWPHmjVrbt++bW9vT5ccP36cw+E8ffp0x44dmzdvvnPnDiGEz+dPmjSpoKAgNDT0zp07r1+/dnFxIYSoqKj079+fnhwWFxfHYDCioqLKysoIIaGhoXZ2doKK1q1b5+npGR0dbWZmNmPGDMH8EGh3pB3AScL8+fO7d+9+5coVNze3ek9oPP/0/v37rl27rl27lt6dN2/emDFjBEfLy8sJIdevX6coys/Pj8lkMpnM9evXN7Nt7Sf/9Oeff/bp04fOzAm+qL19+5YQIvwdaOXKlYMHD6a3PT09mUymjIzMwYMH294ANpvNZrO9vLyeP3/++++/y8vL+/v7N9kGNzc3FotFCAkKCmp7G0TSZkl2Go/HW716NYPBkJWVZTAY27Zto8vbW6fV205JdpQAaTj/xOPxnJychg0bRu+Krw/rzT9t2bJF+I0lMzOTEJKUlBQZGUkIqZVeys/PJ4SEhIQ0Uku943dGRkY1NTX07rRp01xcXOo+MCIighBSWlpKCeWf6EPXrl0jhNTK31MUVVJSoqmpOXPmzLVr1wYHBwsfqqiosLS0PHnypOBqgvxTjx49BK9YwcU/fvxIiecl2nj+qaGeofNPq1at0tPTe/HihfDVhHPPgwYNWr16NUVRt2/fZjKZGRkZdDn91To8PJyiqOXLlzs5OVEUtXfvXhcXl379+t24cYOiKFNT06NHj1L//JMdO3ZM+LEJCQmi6gEQrU6Rf/Lx8XFxcVm2bNmJEyf69+9/5MiR5j+2pKTEycmpV69ezfyhGwUFhS+//NLX1zchIaGR03r37s3lcrlcbu/evQkh3H/QyQPJy8zMXLJkSUBAQIsyc8+fP3dwcNDT06Pf4uu1Zs0aRgMSExOFz+Tz+dbW1tu2bbOyspo/f/68efOa+S9laWlpbGy8ceNG+sucJLWizaLttLNnzwYEBJw6der58+fHjx/ftWvX8ePHm9NyCXdaK9op2o5qDg8PjxcvXpw+fbqZ54u2D2NiYoKDgwVvBRYWFoSQ1NTUfv362dvb9+3bd9q0ab6+voWFhYQQdXV1d3d3R0fHCRMm7Nu3Lzs7u5m19O7dm8lk0tt6enr0eCUhJDIycsKECV27dlVSUqJzIRkZGcLPVPAQQojgUQJKSkr37t37+PHjwYMHJ0yYMHHixKioKPqQl5dXz549Z86c2dIOkfBLtKGeIYTs3r3b19f34cOH9Nu1cAsF24KH0LcNGRoa0uW9evVSVVWlPw7s7OwePnzI4/FCQ0NHjRo1atSokJCQd+/epaSkjBo1qu5lG+ptaCc6RfzE4XC2bt2anJw8ceLEhQsXLl++/OjRo815YGlp6dixY5WUlC5cuCAnJ0cX6urq5ubmCs6ht3V1deldJpN58eJFa2vr0aNHNxJCXb9+PTo6Ojo6+vr164SQ6H8cO3as1U+zLSIjI/Py8qytrWVlZWVlZUNDQ/fv3y8rK6uhoUGPoQjOzM3NFTzZ58+fjxs37tKlS3/++efOnTvrvfKKFSsSGmBiYiJ8pp6eXq9evQS7PXv2pN/BNTU1G2kDIcTAwCAkJOTt27djx44tLS0VRX80V71tbrzBou20lStXrlmzZvr06X379v3uu++WLVvm7e1N2l+n1dtOSXZUkxYtWnT16tXg4OAuXbrQJRLuw7KysgkTJkQLSU5OHjlyJJPJvHPnzo0bN3r16nXgwAFzc3M6S+Hn5xcWFjZ06NAzZ86YmZk9efKkObUI3scIIQwGg8/nE0LKy8sdHR2VlZUDAgIiIiIuXLhACBG+a1jwKHqUkH5ULX379j1//vzevXu3b99Oz5R4//49IeTevXvnzp2j31jokS9NTc2NGzeS+t5LlZWVFRQU6F2Rv0SVlZWFb6MmhBQVFamoqNR6jkSoZ2gjRozg8Xhnz56tdcFGHlKvkSNHlpaWPn/+/P79+4L4KTQ0VF9fv0ePHnUv20hvQ3vQKeInAVVV1QULFowbN+7BgwdNnlxSUjJmzBgWi3X58mXhrIytrW1cXJzgO8GdO3eUlZWFP0TZbHZgYOCgQYNGjx4dHx9f78WNjIxMTU1NTU2NjIwIIab/MDAwaNMzbC17e/u4uDjBG/fAgQNdXV2jo6PZbPaAAQPoWZ+EED6fHxQUZGtrSwh5/fp1UVGRtbX1gAED/Pz8vLy8Ll26VPfKWlpaFg2g8/MCw4YNE751/NWrV3TnsFishtogYGRkFBoampOTI+EQqt42N9JgkXfax48fheeUMJlM+t22vXVave2UZEc1gqKoRYsWXbhw4d69e926dROUS7gPra2tX758aWxsbCqEw+EQQhgMxrBhw3755ZeoqCgWi0XHN4QQKysrLy+vx48f9+nT59SpU7UuSPcAj8drsurExMT8/PzffvttxIgRFhYWbUx49OrV69ChQ8XFxbGxsYSQ8+fPx8TECH8/fPDggYeHByHE1tZW0L2EkDt37oj1JWpubv78+XPhkufPn5uZmTX5wMGDB9+4cWPbtm27du1q8uSePXtmZmbSw6+EkPj4+KKiIvoDQlVV1dLS8j//+Y+cnJyFhcXIkSOjoqKuXr0qPPkJOhJpDyBKwtKlS0NCQoqKimbOnHnv3j0NDQ3B/RT5+flRUVH0uPvp06ejoqKys7MpiiouLraxsenbt29KSkr2P+jRcXr9gjFjxkRHR9+8eVNLS6ve9QsqKysnTpyora0tPGReV/uZ/yRMeKLA6dOn2Wy2v79/fHz8/PnzVVVV6dtJzp49y2AwSkpK6NPWr1/P4XAauYexSeHh4bKysnSmMCAgQFFR8b///W/jbaD+dypJZmamqampra1tcXFxq5shkjZLrNPc3NwMDAzodQECAwM1NTUFd322q05rqJ0S66jS0tKoqCh6UMnHxycqKio9PZ0+tHDhQhUVlZCQEMH/dHoKTiPNo9rWh25ubqNGjYoSkpGR8fbtWy0tra+//jo8PDwlJeXmzZvu7u41NTVPnjzZunVrREREeno6fSPw9evXX79+vWbNmsePH7958+bWrVsaGhp11wuorq5WUFD49ddfc3JyioqKqDrzrpYsWULfl5eXl8disVauXJmamnrp0iU6pKB7u9aMJboD09LSatUVGRm5cePGxMREX1/fCxcurF+/Xl5evu79krWuRq9fsHLlyoSEhIMHDza0foGoXqKpqany8vKLFy+OiYlJTEzcvXu3rKwsPQOpoZ6hhO6/e/DgAZfLFXx21JpNNWnSJHp+LZ/P79+//4gRIyIjI58+fTpgwADBpSiKWrp0KZPJFEyu6tevH5PJPHLkCL1ba8oaPVZbaz4ZtB/t7pNbHHx8fKytrZWUlGRkZLp06UKveEkf8vPzqxVQ0reh0v/PaxG8a7x582bcuHEKCgqamporVqyg1zWg6qwmUlVV5ezsrKWlFRcX11Db2n/8RFHUgQMHunbtymKxBg8e/OTJE7pwzZo1ZmZmgnP4fP7UqVMNDQ3pALR1rly50qdPHzabbWFhQU+obLwNVJ03vqysrB49egwZMkRiIVRDbZZMp5WUlCxZsqRr167y8vImJibr1q0TrG3WUBsoaXRaI+2UTEfV/R8tuJuk7v90Pz8/wQPF0Ydubm61apw7dy5FUa9evZo8ebKqqqqCgoKFhcXSpUv5fH58fLyjo6OWlhabzTYzM6MXxMrJyXF2dtbT02OxWEZGRhs2bKh3nTlfX19DQ0MZGRnh9QsER4WjhFOnThkbG7PZbFtb28uXL7c0fpK1DNgAAAqCSURBVHr37t2cOXOMjY3l5OTk5eWtrKyuXbvW0L+C4Gp0Sf/+/VkslomJiXC3i+klGh4e/uWXX2ppaamoqNjY2AjuJGhO/ERRVGhoKIfD2b9/P9Vw/EQ1sH4Bjc4dHj58WFARIUSwJATip46FQdX39vG5cnd3r3tXKgAAiIS/v7+xsbHwbGiAz1Xnmv8EAAAA0HadK/8EAAAA0HbIPwEAAAC0DOInAAAAgJZB/AQAAADQMoifAAAAAFoG8RMAAABAyyB+AgAAAGgZxE8AQAghISEhDAajqKhIWg1gMBgXL15s+3U2bdrUv39/etvd3d3Z2bnt1wQAqAXxE4Ak1Pog/+uvv+Tl5Xfv3t3IQ/z9/VVVVcXftL8NHTo0Oztb8HP0woyNjRkMBoPB4HA41tbW586dk1irWsHT01P4V2kBAMQB8ROApB07dszV1fXw4cMrVqyQdlv+Vl1dzWKxdHV1GQxGvSds3rw5Ozs7Kipq0KBBLi4ujx8/lnALm4/L5WpoaEi7FQDwmUP8BCBRO3bsWLx48enTp2fPnk2X+Pj49O3bl8PhGBoa/vjjj2VlZYSQkJCQ2bNnFxcX04mfTZs2EUIqKys9PT0NDAw4HI6NjU1ISIjgsvQvxSoqKk6ePNnHx0c4cXX48OHu3buzWCxzc/OTJ08KyhkMxuHDh+kfOt26dWvj43dKSkq6urpmZmYHDx5UUFC4cuUKISQzM/Obb75RVVVVV1efNGnSmzdv6JPpZNuuXbv09PQ0NDQ8PDyqq6vpQ9nZ2U5OTgoKCt26daN/s3bv3r2CWj58+DB58mRFRcUePXrQv2JLCOHxeHPnzu3WrZuCgoK5ufm+ffsE54eEhAwePJjD4aiqqg4bNiw9PZ387/idsJs3bw4fPlxVVVVDQ+Orr75KTU2ly9+8ecNgMAIDA0ePHq2oqNivX7+wsLAm/x0BoJND/AQgOatXr96yZcvVq1cnT54sKJSRkdm/f//Lly+PHz9+7969VatWEUKGDh26d+9eZWXl7Ozs7OxsT09PQsiiRYvCwsJOnz4dGxs7bdq0sWPHJicnE0IePXr0ww8/LFmyJDo6+ssvv9y6davg4hcuXFiyZMmKFStevHixYMGC2bNnBwcHC45u2rRp8uTJcXFxc+bMaeZTkJWVlZOTq6qqqq6udnR0VFJSevDgwaNHj7hc7tixY6uqqujTgoODU1NTg4ODjx8/7u/vL/jd7lmzZr179y4kJOT8+fNHjx7Ny8sTvvgvv/zyzTffxMbGjh8/3tXVtaCggBDC5/O7dOly7ty5+Pj4DRs2rF279uzZs4SQmpoaZ2dnOzu72NjYsLCw+fPnN5Q8o5WXly9fvvzZs2dBQUEyMjKTJ0/m8/mCo+vWrfP09IyOjjYzM5sxY0ZNTU0zOwQAOikKAMTPzc2NxWIRQoKCgho57dy5cxoaGvS2n5+fioqK4FB6ejqTyXz79q2gxN7e3svLi6IoFxcXJycnQbmrq6vggUOHDp03b57g0LRp08aPH09vE0KWLl0qOETHVYWFhXVbZWRktGfPHoqiKisrt23bRgi5evXqyZMnzc3N+Xw+fU5lZaWCgsKtW7foJ2tkZFRTUyOo1MXFhaKohIQEQkhERARdTgd/9JXp9vz888/0Np2Eu3HjRt3GeHh4TJ06laKo/Px8QkhISEitEzZu3NivXz96283NbdKkSXUv8v79e0JIXFwcRVFpaWmEkGPHjtGHXr58SQhJSEio+ygAAAHknwAkxNLS0tjYeOPGjXRwIHD37l17e3sDAwMlJaXvvvsuPz//48ePdR8eFxfH4/HMzMy4/wgNDaUHoZKSkgYPHiw4U3g7ISFh2LBhgt1hw4bRQQxt4MCBzWz86tWruVyuoqLi9u3bf/vtNycnp5iYmJSUFCUlJbox6urqFRUVgkGx3r17M5lMeltPT4/OMyUlJcnKylpbW9PlpqamampqtbqI3uBwOMrKyoLs1MGDBwcMGKClpcXlco8ePZqRkUEIUVdXd3d3d3R0nDBhwr59+7Kzsxt/CsnJyTNmzDAxMVFWVjY2NiaE0NepVbWenh4hpFZiDACgFllpNwCgszAwMPjrr79Gjx49duzYGzduKCkpEULevHnz1VdfLVy4cOvWrerq6g8fPpw7d25VVZWiomKth5eVlTGZzMjISEFcQgjhcrltaRKHw2nmmStXrnR3d+dyuTo6OvQwWVlZ2YABAwICAoRP09LSojfk5OQEhQwGQ3ikrBH1Pur06dOenp67d++2tbVVUlLauXPn06dP6XP8/Px++umnmzdvnjlz5ueff75z586QIUMauviECROMjIx8fX319fX5fH6fPn0Eo43CVdPPrpkNBoBOC/ETgOQYGRmFhobSIdTNmzeVlJQiIyP5fP7u3btlZGQIIfTMHhqLxeLxeIJdKysrHo+Xl5c3YsSIWpc1NzePiIgQ7Apv9+zZ89GjR25ubvTuo0ePevXq1YqWa2pqmpqaCpdYW1ufOXNGW1tbWVm5mRcxNzevqamJiooaMGAAISQlJaWwsLDJRz169Gjo0KE//vgjvStIcdGsrKysrKy8vLxsbW1PnTrVUPyUn5+flJTk6+tL997Dhw+b2WYAgHph/A5AogwNDUNCQvLy8hwdHUtKSkxNTaurqw8cOPD69euTJ08eOXJEcKaxsXFZWVlQUNCHDx8+fvxoZmbm6uo6a9aswMDAtLS08PBwb2/va9euEUIWL158/fp1Hx+f5OTk33///caNG4KZ1CtXrvT39z98+HBycrKPj09gYCA9Fb3tXF1dNTU1J02a9ODBg7S0tJCQkJ9++ikrK6uRh1hYWDg4OMyfPz88PDwqKmr+/PkKCgqNT/omhPTo0ePZs2e3bt169erV+vXrBdFhWlqal5dXWFhYenr67du3k5OTe/bs2dBF1NTUNDQ0jh49mpKScu/eveXLl7fiKQMACCB+ApC0Ll26hISEfPjwwdHRsVu3bj4+Ptu3b+/Tp09AQIC3t7fgtKFDh/7www8uLi5aWlo7duwghPj5+c2aNWvFihXm5ubOzs4RERFdu3YlhAwbNuzIkSM+Pj79+vW7efPmsmXL5OXl6Ys4Ozvv27dv165dvXv3/v333/38/EaNGiWSZ6GoqHj//v2uXbtOmTKlZ8+ec+fOraioaDIXdeLECR0dnZEjR06ePHnevHlKSkqCpjZkwYIFU6ZMcXFxsbGxyc/PFySiFBUVExMTp06damZmNn/+fA8PjwULFjR0ERkZmdOnT0dGRvbp02fZsmU7d+5s6fMFABDGoChK2m0AAFGaN29eYmLigwcPpN2QJmRlZRkaGtLT56XdFgCAlsH8J4DPwa5du7788ksOh3Pjxo3jx48fOnRI2i2q371798rKyvr27Zudnb1q1SpjY+ORI0dKu1EAAC2G+AngcxAeHr5jx47S0lITE5P9+/d///330m5R/aqrq9euXfv69WslJaWhQ4cGBAQI33MHANBRYPwOAAAAoGUwfxwAAACgZRA/AQAAALQM4icAAACAlkH8BAAAANAyiJ8AAAAAWgbxEwAAAEDLIH4CAAAAaBnETwAAAAAt8//qdwNVX9YAPwAAAABJRU5ErkJggg==;" vertex="1" parent="1">
          <mxGeometry x="67" y="194" width="331.76" height="230" as="geometry" />
        </mxCell>
        <mxCell id="bKZXCF3hpcBLxEKtwcrL-16" value="5. Insight Count nasabah eksisting dan attrited berdasarkan education level" style="text;html=1;align=center;verticalAlign=middle;whiteSpace=wrap;rounded=0;" vertex="1" parent="1">
          <mxGeometry x="55" y="1008" width="404" height="30" as="geometry" />
        </mxCell>
        <mxCell id="bKZXCF3hpcBLxEKtwcrL-17" value="&lt;h1 style=&quot;margin-top: 0px;&quot;&gt;&lt;font face=&quot;Verdana&quot;&gt;&lt;span style=&quot;font-weight: 400;&quot;&gt;Rumusan masalah&lt;/span&gt;&lt;/font&gt;&lt;/h1&gt;&lt;p&gt;Nasabah apa saja yang paling banyak menggunakan creadit card berdasarkan tingkat pendidikan?&lt;/p&gt;&lt;p&gt;&lt;font style=&quot;font-size: 24px;&quot;&gt;Tujuan&lt;/font&gt;&lt;/p&gt;&lt;p&gt;Mengetahui nasabah yang paling banyak menggunakan creadit card berdasarkan tingkat pendidikannya&lt;/p&gt;&lt;p&gt;&lt;font style=&quot;font-size: 24px;&quot;&gt;Hasil&lt;/font&gt;&lt;/p&gt;&lt;p&gt;Teryata nasabah yang tingkat pendidikan Gradute(S1) paling banyak sekitar 2641.0 disusul oleh tingkat SMA&lt;/p&gt;&lt;p&gt;&lt;br&gt;&lt;/p&gt;&lt;p&gt;&lt;br&gt;&lt;/p&gt;" style="text;html=1;whiteSpace=wrap;overflow=hidden;rounded=0;" vertex="1" parent="1">
          <mxGeometry x="53" y="1033" width="381" height="257" as="geometry" />
        </mxCell>
        <mxCell id="bKZXCF3hpcBLxEKtwcrL-18" value="&lt;h1 style=&quot;margin-top: 0px;&quot;&gt;Metode penelitian&lt;/h1&gt;&lt;p&gt;Menggunakan coutplot pada library seaborn yaitu digunakan untuk menjumlah data berdasarkan kategorinya.&lt;/p&gt;&lt;p&gt;Dengan menghitung jumlah banyaknya nasabah yaitu Exiting Costumer dan Attrited Costumer berdasarkan tingkatan pendidikannya&lt;/p&gt;" style="text;html=1;whiteSpace=wrap;overflow=hidden;rounded=0;" vertex="1" parent="1">
          <mxGeometry x="482" y="884" width="276" height="120" as="geometry" />
        </mxCell>
        <mxCell id="bKZXCF3hpcBLxEKtwcrL-19" value="&lt;font style=&quot;font-size: 24px;&quot;&gt;Batasan Masalah&lt;/font&gt;&lt;div style=&quot;&quot;&gt;&lt;font style=&quot;font-size: 12px;&quot;&gt;- Hanya ada 1 dataset dari kaggle yaiut BANKchunners&lt;/font&gt;&lt;/div&gt;&lt;div style=&quot;&quot;&gt;&lt;font style=&quot;font-size: 12px;&quot;&gt;- Hanya beberapa data pada kolom yang kami analis&lt;/font&gt;&lt;font style=&quot;font-size: 12px;&quot;&gt;a&lt;/font&gt;&lt;/div&gt;" style="text;html=1;align=left;verticalAlign=middle;whiteSpace=wrap;rounded=0;" vertex="1" parent="1">
          <mxGeometry x="1022" y="189" width="408" height="62" as="geometry" />
        </mxCell>
      </root>
    </mxGraphModel>
  </diagram>
</mxfile>
